<?xml version="1.0" encoding="UTF-8"?>
<svg xmlns="http://www.w3.org/2000/svg" xmlns:xlink="http://www.w3.org/1999/xlink" viewBox="0 0 2571 1283">
  <defs>
    <style>
      .cls-1 {
        fill: url(#_Áåçûìÿííûé_ãðàäèåíò_366);
      }

      .cls-1, .cls-2, .cls-3 {
        fill-rule: evenodd;
      }

      .cls-4 {
        isolation: isolate;
      }

      .cls-2 {
        fill: #bbadd4;
      }

      .cls-5, .cls-6 {
        mix-blend-mode: soft-light;
      }

      .cls-7 {
        opacity: .47;
      }

      .cls-7, .cls-8 {
        mix-blend-mode: multiply;
      }

      .cls-3 {
        fill: #c2aeb6;
      }

      .cls-6 {
        opacity: .63;
      }

      .cls-8 {
        opacity: .5;
      }
    </style>
    <radialGradient id="_Áåçûìÿííûé_ãðàäèåíò_366" data-name="Áåçûìÿííûé ãðàäèåíò 366" cx="2246.52" cy="-12476.84" fx="2246.52" fy="-12476.84" r="1116.35" gradientTransform="translate(1757.73 -11251.24) rotate(18.43) scale(1 -1)" gradientUnits="userSpaceOnUse">
      <stop offset="0" stop-color="#85bfe8"/>
      <stop offset=".84" stop-color="#492f83"/>
      <stop offset=".95" stop-color="#403b77"/>
      <stop offset="1" stop-color="#5476b9"/>
    </radialGradient>
  </defs>
  <g class="cls-4">
    <g id="Layer_1" data-name="Layer 1">
      <g>
        <path class="cls-1" d="m449.98,328.16c-117.17-39.03-236.83-49.81-351.8-36.12-22.66,2.65-45.17,6.35-67.46,10.89-10.3,2.11-20.54,4.44-30.73,6.95v973.27h984.04c94.91-404.12-132.53-821.22-534.06-954.99Z"/>
        <g class="cls-8">
          <path class="cls-3" d="m918.34,1211.6c-1.06-11.94-4.65-23.46-5.98-35.35-1.21-11.86-2.46-23.23-4.84-34.97-6.01-28.82-10.51-57.64-17.47-86.26-12.51-51.63-32.05-100.31-50.07-150.13-9.11-25.19-21.95-48.61-34.01-72.51-13.68-26.97-24.07-55.48-38.58-82.22-11.18-20.85-23.01-42.04-37.56-60.73-8.31-10.57-15.91-21.79-24.25-32.25-10.65-13.37-24.97-23.68-37.1-35.65-40.54-39.31-87.38-71.03-132.71-104.26-44.46-32.44-85.15-70.16-131.69-99.76-9.56-6.08-19.76-10.61-29.58-16.27-10.69-6.08-20.59-13.03-31.84-18.16-22.47-10.38-42.42-25.71-65.58-34.81-16.17-6.27-32.52-8.19-48.88-12.76-21.08-5.89-40.72-14.95-60.85-23.29-22.21-9.29-45.44-15.52-69.2-20.16-22.66,2.65-45.17,6.35-67.46,10.89.76,0,1.62.04,2.38.04,14.81.15,29.84-3.4,44.38-2.08,15.49,1.51,31.24,4.11,46.91,6.56,21.45,3.24,39.77,9.47,59.04,19.29,9.86,5.17,19.98,9.93,29.69,15.56,10.54,6.15,22.96,7.02,33.43,13.4,14.51,8.99,32.94,11.85,48.84,17.78,27.35,10.12,51.15,29.38,76.08,43.72,27.69,15.9,52.32,36.06,81.37,49.77,16.55,7.78,28.18,18.2,42.8,28.74,12.62,8.99,18.96,19.79,27.69,32.52,16.85,24.24,33.78,49.02,56.33,68.62,22.44,19.56,47.45,36.33,73.28,50.98,21.19,11.97,42.35,31.23,54.74,52.6,5.4,9.48,10.35,19.19,15.6,28.74,6.54,11.75,13.98,22.66,19.16,35.09,5.89,14.05,13.45,27.65,19.23,41.66,6.39,15.6,10.36,32.03,16.63,47.59,9.98,24.85,31.66,43.28,41.3,68.4,2.04,5.21,2.65,10.95,4.84,16.09,2.34,5.44,5.52,8.76,6.01,14.84.57,7.37,2.27,24.55-3.77,30.59-12.12,12.2-38-38.22-42.16-46.15-6.54-12.12-11.3-23.91-20.55-34.29-5.59-6.27-10.96-12.84-17.34-18.24-10.58-9.06-24.55-14.35-36.57-21.37-33.35-19.67-68.56-36.06-102.93-53.8-46.54-23.94-92.74-50.78-137.08-78.65-41.55-26.05-82.08-53.66-123.71-79.48-22.1-13.78-44.12-27.79-66.48-41.16-27.27-16.39-53.15-35.08-80.84-50.6-45.37-25.56-90.96-52.71-140.03-70.57-19.76-7.16-39.35-14.56-58.98-21.82v63.83c21.71,13.75,44.45,26.41,66.36,39.76,11.52,6.99,23.76,13.71,34.75,21.52,12.39,8.91,22.97,20.24,34.41,30.1,21.91,18.88,41.9,37.5,67.54,51.2,16.17,8.53,35.28,17.29,48.28,30.43,4.27,4.19,10.69,10.23,7.63,16.77-3.7,8.08-13.94,2.16-19.6-.86-16.55-8.91-33.92-16.46-49.83-26.92-28.48-18.8-57.72-33.08-89.33-45.88-32.9-13.44-66.32-26.82-100.22-38.29v494.64c3.78,3.81,7.47,7.7,11.01,11.71,19.98,22.77,41.52,42.03,66.75,59.25,31.77,21.79,64.37,43.73,98.02,62.49,23.45,13.03,45.78,28.76,66.5,46.11h678.74c-.26-23.91-.43-47.64-2.68-71.55Z"/>
        </g>
        <g class="cls-6">
          <path class="cls-3" d="m225.77,1272.49c-15.7-13.48-33.22-22.95-50.53-33.94-19.75-12.54-39.77-24.15-59.42-36.75-19.74-12.66-41.09-22.81-59.93-37.07-9.49-7.19-19.07-14.33-27.39-22.84-7.66-7.84-16.51-14.31-24.03-22.28-1.52-1.61-2.99-3.28-4.47-4.94v49.9c3.07,2.05,6.01,4.16,8.65,6.35,18.98,15.77,41.36,28.02,62.81,40.04,14.89,8.34,28.76,18.01,43.46,26.63,11.61,6.81,23.23,11.23,35.35,16.6,17.36,7.7,34.63,15.73,51.44,24.66,2.71,1.44,5.5,2.87,8.31,4.3h27.93c-3.95-3.56-8.01-7.07-12.18-10.66Z"/>
          <path class="cls-3" d="m26.11,1247.85c-8.93-5.11-17.55-10.83-26.12-16.67v29.51c3.44,3.88,6.78,7.84,10.11,11.63,3.38,3.83,7.03,7.31,10.63,10.83h38.53c-2.34-4.67-4.88-9.23-8.33-13.67-7.16-9.22-14.56-15.76-24.83-21.63Z"/>
          <path class="cls-3" d="m24.09,1199.1c-2.17-3.93-4.11-6.72-7.56-8.77-4.61-2.73-9.15-5.51-14.41-7.18-.72-.23-1.42-.46-2.12-.69v26.48c5.41,2.77,10.62,7.45,16.99,7.3,10.55-.24,11.52-9.14,7.11-17.14Z"/>
          <path class="cls-3" d="m61.6,582.82c-12.94-12.85-29.39-21.29-44.27-31.56-5.71-3.94-11.58-7.9-17.08-12.14-.09-.07-.17-.14-.25-.21v40.22c10.24,3.95,20.43,8,30.36,12.96,9.41,4.7,18.94,7.39,28.65,11.14,5.56,2.15,10.41,7.46,16.56,7.61,23.62.57-10.38-24.46-13.97-28.03Z"/>
          <path class="cls-3" d="m535.92,485.54c-11.53-8.34-22.05-16.98-30.59-28.52-3.72-5.02-7.73-12.84.87-14.81,11.59-2.66,26.22,5.67,36.31,10.07,17.39,7.58,34.02,16.77,51.07,25.08,11.56,5.63,23.05,10.88,34.23,17.29,14.6,8.37,28.08,18.49,41.54,28.55,10.03,7.5,18.97,15.69,26.85,25.33,8.11,9.93,17,19.06,23.77,30.09,8.88,14.46,22.41,27.96,21.69,46.09-.6,15.09-28.74.19-34.24-2.46-20.9-10.09-41.17-23.92-59.5-38.17-8.02-6.23-16.95-11.91-24.43-18.75-10.08-9.22-19.45-19.29-30-28.02-5.01-4.15-8.87-9.46-13.96-13.5-4.52-3.59-9.07-7-13.47-10.76-4.92-4.21-9.75-8.67-14.9-12.48-11.8-8.72-23.77-16.69-15.27-15.03Z"/>
          <path class="cls-3" d="m740.15,664.89c-.21,8.17,3.41,13.2,7.15,20.35,2.92,5.6,5.47,11.45,11.43,14.42,4.38,2.18,13.28-.75,13.19-6.66-.04-3.08-2.58-7.18-3.55-10.16-1.28-3.92-2.6-7.46-5.59-10.48-5.89-5.97-12.87-7.6-20.73-8.42l-1.91.95Z"/>
          <path class="cls-3" d="m757.36,871c-4.48-4.31-8.58-9.81-13.76-13.23-3.86-2.56-8.25-4.48-12.36-6.61-12.45-6.45-25.68-11.85-38.5-17.58-16.36-7.32-32.39-15.28-48.92-22.22-29.13-12.23-59.7-25.29-85.26-44-21.79-15.95-41.17-33.12-59.64-52.81-15.98-17.03-31.38-34.71-44.04-54.42-4.24-6.6-7.59-13.87-10.95-20.95-2.23-4.7-4.59-9.7-5.11-14.92-.8-8.1,3.68-12.03,11.19-13.91,11.68-2.91,23.55.43,35.1,2.58,17.09,3.19,34.11,6.57,51.25,9.47,17.51,2.97,35.63,6.51,52.74,11.38,17.75,5.05,35.9,11.5,50.37,23.38,10.45,8.58,20.08,16.69,29.12,26.84,8.65,9.71,17.3,19.33,25.13,29.7,5.57,7.38,11.99,13.98,16.38,22.24,1.91,3.6,4,6.85,6.12,10.31,3.27,5.34,4.91,11.38,8.29,16.76,7.3,11.62,13.47,25.42,17.86,38.39,3.49,10.32,8.76,19.88,12.2,30.19,2.05,6.12,4.96,9.95,5.17,16.71.09,3.11-.3,15.68-2.39,22.7Z"/>
          <path class="cls-3" d="m785.04,907.25c1.23,7.49,3.2,10.36,6.64,16.84,2.46,4.63,5.21,12.19,9.67,15.42,2.44,1.77,5.51,2.67,7.89,1.36,2.41-1.33,4.37-4.29,4.75-6.84.95-6.36-3.34-12.99-7.5-17.26-5.16-5.3-9.34-4.88-16.21-6.18l-5.25-3.34Z"/>
          <path class="cls-3" d="m909.81,1048.27c2.33,21.2,3.55,42.6,6.99,63.65,1.6,9.81,4.59,19.21,6.54,28.94,1.56,7.77,3.27,15.36,6.14,22.77,2.7,6.99,4.01,14.03,6.12,21.13.1.35.27.68.39,1.02,1.45,2.36,3.28,5.74,5.59,10.57-1.97-3.5-4.26-6.83-5.59-10.57-4.15-6.72-5.22-4.92-5.45-3.08-.38,3.04-.15,6.47-.32,9.55-.21,3.94-.76,7.51-1.01,11.43-.41,6.35-1.48,12.43-.36,18.8.62,3.51,1.63,7.03,2.2,10.52.68,4.13.17,8.55.4,12.75.67,12.24-2.85,23.75-1.27,35.97.06.48.16.95.23,1.43h33.71c.86-3.19,1.71-6.4,2.71-9.58,4.9-15.64,5.29-32.53,8.45-48.54,2.96-14.96,6.89-30.21,13.56-43.99,14.86-30.71,9.27-67.73,1.37-99.59-7.95-32.04-20.75-63.23-38.89-90.82-6.89-10.49-16.14-25.84-29.57-28.38-10.81-2.04-13.22,11.81-14.58,19.91-1.9,11.35-1.24,22.77-.14,34.17,1.03,10.64,1.62,21.32,2.78,31.95Z"/>
          <path class="cls-3" d="m886.19,966.39c-1.73-3.4-12.28-23.65-4.97-25.5,2-.51,6.2,2.31,7.57,3.37,3.17,2.47,4.44,5.73,6.6,8.94,2.9,4.31,2.42,6.84.82,11.75-2.22,6.83-6.47,5.16-11.45.96l1.43.48Z"/>
          <path class="cls-3" d="m935.33,943.01c1.84,5.56,2.16,7.79,6.25,11.15,3.3,2.71,5.34,6.45,9.16,8.44,4.69,2.44,7.61,1.35,9.67-3.5,3.55-8.32-3.27-22.82-5.96-30.45-3.35-9.49-7.19-19.47-12.8-27.89-7.96-11.96-20.29-1.03-19.63,10.4.39,6.9-1.03,14.42.96,21.14,3.12,10.53,12.02,13.42,20.95,18.35l-8.59-7.63Z"/>
          <path class="cls-3" d="m120.84,1283.15c-5.43-2.62-11.06-4.46-17.35-4.86-5.64-.36-16.98-1.79-20.05,4.86h37.4Z"/>
        </g>
        <g class="cls-7">
          <path class="cls-3" d="m231.74,1256.17c8.38,9.91,17.49,18.71,27.2,26.98h118.77c-3.36-8.7-7.92-17.03-13.18-24.3-4.87-6.73-9.01-11.78-15.81-16.73-5.07-3.7-10.06-7.52-14.81-11.62-6.13-5.29-12.78-10.38-18.36-16.23-5.29-5.54-10.15-11.52-15.48-17.02-9.94-10.27-21.59-18.85-33.69-26.28-9.65-5.93-18.83-12.3-30.78-11.1-7.06.71-14.25,5.11-19.46,9.73-8.95,7.94-11.42,21.66-10,32.93,2.48,19.6,13,38.73,25.61,53.64Z"/>
          <path class="cls-3" d="m458.02,1230.8c-6.33-19.06-17.09-36.75-24.42-55.51-3.48-8.92-7.51-17.93-10.42-27.06-2.9-9.1-4.64-18.86-6.51-28.22-2.75-13.76-4.17-27.25-8.86-40.63-2.82-8.05-5.94-16.73-10.6-23.94-5.25-8.13-12.32-15.82-18.62-23.14-7.85-9.11-15.61-18.49-24.47-26.64-9.93-9.13-21.18-17.31-32.26-24.97-20.43-14.13-41.83-27.26-63.29-39.78-26.04-15.2-53.15-28.39-79.48-43.01-21.83-12.12-43.65-24.5-65.28-36.96C77.86,840.21,39.7,823.19,0,811.15v256.19c9.21,8.67,17.95,17.91,26.34,27.65,9.37,10.88,19.76,20.75,29.61,31.17,9.97,10.54,21.14,18.19,33.28,26,21.62,13.92,45.03,24.54,67.17,37.49,4.35,2.54,9.07,5.53,13.72,7.4,6.21,2.5,8.68,3.89,14.31-.09,2.32-.78-.59-15.13-1.18-21.39-1.38-14.38-1.62-26.51,14.16-31.46,11.78-3.7,24.2-5.07,36.44-5.93,16.6-1.16,31.23,5.58,45.33,13.87,34.2,20.09,59.12,52.58,85.98,80.98,10.63,11.24,22.77,20.74,35.33,29.68,7.08,5.04,14.15,11.25,22.06,15.03,5.39,2.57,11.42,4.63,17.49,5.4h9.04c8.26-1.36,10.79-8.83,12.62-16.37,2.8-11.53.02-24.87-3.68-35.98Z"/>
          <path class="cls-3" d="m833.52,1233.51c1.97,16.37,2.89,33.06,3.98,49.64h53.35c-1.62-5.5-3.33-10.88-4.95-15.93-3.82-11.91-11.72-22.65-15.23-34.59-6.91-23.56-6.98-53.92-24.7-72.68-4.38-4.64-12.15-12.46-18.98-9.06-8.54,4.24-3.83,18.32-2.79,25.43,2.8,19.09,7.01,38.06,9.32,57.2Z"/>
          <path class="cls-3" d="m769.33,1078.53c-10.27-11-17.14-22.06-25.84-34.12-7.63-10.59-16.97-19.48-26.3-28.56-24.04-23.39-50.7-41.92-80.19-57.8-37.55-20.22-76.33-39.01-110.65-64.55-26.05-19.39-51.64-39.3-77.24-59.27-24.1-18.8-52.91-36.09-71.79-60.57-4.65-6.02-10.64-14.94-5.78-22.34,7.72-11.76,34.41-3.46,43.97-.71,28.89,8.32,57.3,19.26,85.84,28.74,13.67,4.54,27.15,9.86,41.22,13.04,18.45,4.18,33.72,9.39,51.1,16.95,20.76,9.03,43.23,16.03,61.65,29.5,35.52,26,69.82,53.97,103.52,82.22,30.23,25.35,71.31,70.61,53.76,113.11-7.48,18.12-27.85,40.48-43.27,44.36Z"/>
          <path class="cls-3" d="m838.03,1063.25c-9.79,10.08-12.33,12.59-9.73,25.65,1.65,8.29,10.14,22.56,18.99,25.52,17.72,5.93,25.03-14.21,25.18-27.85.13-11.92.94-29.92-11.52-34.82-5.32-2.09-7.33-1.96-12.47-.28-5.23,1.72-14.32,9.65-19.04,8.92l8.59,2.86Z"/>
          <path class="cls-3" d="m28.52,663.15c-2.19-16.12-14.95-24.38-28.53-31.46v58.59c3.44-.42,6.72-1.07,9.7-2.13,13.98-4.95,20.84-10.26,18.83-25.01Z"/>
          <path class="cls-3" d="m766.41,786.55c-.48,22.14,3.5,42.42,18.09,59.92,3.39,4.07,5.91,8.75,11.9,7.78,4.94-.8,5.76-5.94,5.83-10.55.09-6.13-2.43-15.42-4.79-21.19-2.53-6.19-5.86-12.51-9.07-18.38-1.85-3.38-4.5-7.95-7.85-9.77-3.08-1.68-7.43-2.4-14.11-7.81Z"/>
          <path class="cls-3" d="m45.47,520.94c-2.23,7.82,1.02,12.9,5.39,19.99,9.21,14.97,23.65,27.93,37.82,38.15,12.6,9.09,28.3,17.75,44.18,18.58,7.11.37,16.29-.06,21.29-5.82,8.6-9.91,1.85-30.95-5.22-40.36-8.87-11.81-24.77-19.8-36.63-28.21-10.57-7.5-24.16-13.41-36.95-15.87-4.71-.91-9.58-2.3-14.36-2.01-4.48.28-9.16-1.1-13.54-.36-4.19.71-9.84,2.16-11.57,6.27-.92,2.19-1.18,5.58-.67,7.88.97,4.37,5.57,6.42,10.26,1.74Z"/>
        </g>
        <g class="cls-5">
          <path class="cls-2" d="m677.33,1232.09c-.69-.7-1.59-1.33-1.73-2.36-.06-.41.05-1.21.15-1.62.57-2.32,4.02-2.29,5.71-2.23,4.67.18,9.96,2.04,13.2,5.99,2.07,2.53,3.87,6.9,3.06,10.41-1.11,4.86-5.91,7.43-9.97,8.28-3.79.79-9.08.79-11.84-2.69-.98-1.23-1.82-2.77-1.88-4.47-.04-1.31.45-2.54.53-3.85.11-1.75-.63-3.3.2-4.98.58-1.18,1.52-1.95,2.57-2.49Z"/>
          <path class="cls-2" d="m705.3,1232.92c-.32,1.46-.23,1.62.46,2.78.63,1.05,1.37,1.52,2.52,1.26,1.8-.41,2.99-2.74,2.31-4.62-.44-1.2-1.82-1.94-2.94-2.11-1.34-.2-2.55.84-3.03,2.26l.68.43Z"/>
          <path class="cls-2" d="m605.29,1238.83c-.8-1.86-1.69-3.89-.07-5.8,1.51-1.77,4.23-1.25,5.92-.27.9.52,1.94,1.09,2.02,2.29.08,1.23-.16,2.57-.19,3.82-.07,2.97,2.48,5.2-.03,7.94-1.03,1.12-3.15,1.98-4.57,1.61-2.63-.7-3.82-3.89-4.63-6.49l1.54-3.1Z"/>
          <path class="cls-2" d="m317.19,843.78c.2,1.97.13,5.44,2.69,7.48,2.08,1.66,3.42,1.33,5.54,1.67,4.63.73,9.44.83,8.02-4.52-.63-2.35-3.74-5.77-6.54-7.25-2.47-1.3-7.58-2.08-8.07.23l-1.63,2.38Z"/>
          <path class="cls-2" d="m545.01,975.01c-1.77-6.16-.35-11.51,1.94-16.38,1.46-3.1,2.92-7.4,7.5-7.05,10.75.81,14.82,22.76,15.55,29.53.6,5.57.05,11.72-1.98,16.34-1.24,2.83-5.3,7.78-9.13,7.83-4.95.06-9.58-4.7-11.73-9-4.97-9.91-1.53-18.34-2.91-27.74l.76,6.49Z"/>
          <path class="cls-2" d="m539.6,973.96c-1.02-.61-5.54-2.94-6.93-4.51-.99-1.13-2.56-2.87-2.65-4.15-.12-1.77,1.5-2.8,2.94-3.25.94-.3,2.67-.29,3.76.61.85.71,1.39,2.14,1.82,3.05.79,1.64,1.25,3.32,1.69,5.04.2.79.56,1.62.57,2.42.02,1.24-.93,1.25-1.44,2l.24-1.21Z"/>
          <path class="cls-2" d="m542.9,926.17c1.22.05,2.44.09,3.66.13,0-1.23.76-2.35-.39-3.66-.79-.89-3.15-1.96-4.21-2.08-1.57-.17-2.7.39-2.9,1.73-.24,1.57,1.24,2.9,2.82,3.87h1.02Z"/>
          <path class="cls-2" d="m387.44,833.22c.19-1.26.51-2.08,2.19-2.07,2.41.02,5,1.44,6.19,3.66,1.64,3.05,2.42,7.91.15,9.69-1.43,1.12-5.34.88-6.93-1.47-.79-1.17-1.9-2.81-2.33-3.99-.75-2.07-.25-4.04.55-5.54l.18-.27Z"/>
          <path class="cls-2" d="m115.69,1060.38c-.79-1.47-1.27-2.02-1.05-3.61.24-1.79.62-3.51,2.11-4.72,2.92-2.39,8.41-2.82,12.09-2.47,3.37.32,5.67,1.54,7.65,4.27,2.22,3.06,3.17,6.31,2.48,10.04-.72,3.91-2.36,6.36-6.32,7.57-3.17.96-7.35,1.83-10.66,1.29-3.1-.51-4.84-1.99-6.44-4.61-1.43-2.33-3.03-6.2.14-7.74Z"/>
          <path class="cls-2" d="m145.59,1057.43c-.25.99-.84,2.05.15,2.69,1.25.8,4.14.34,5.35-.3.98-.52,2.38-2.07,2.58-3.23.16-.92-.45-1.95-.97-2.68-.9-1.26-2.25-1.87-3.67-1.54-.99.23-3.37.62-3.45,1.97v3.1Z"/>
          <path class="cls-2" d="m72.85,349.04c-12.18-3.82-26.84,2.13-37.29,8.33-5.28,3.13-9.63,6.65-15.55,8.79-6.57,2.37-13.29,4.35-20.02,6.27v45.39c5.01,1.84,10.66,2.98,15.08,2.23,7.86-1.34,15.6-4.67,23.31-6.69,7.01-1.84,13.49-2.02,20.19-5.33,6-2.96,11.42-7.65,15.62-12.83,6.53-8.05,13.8-21.31,12.98-31.95-.75-9.72-5.75-11.52-14.31-14.21Z"/>
          <path class="cls-2" d="m4.19,981.7c-1.24-1.42-2.62-2.16-4.2-2.31v16.68c3.34.56,6.7-.04,8.09-2.38,1.68-2.82-1.95-9.75-3.89-11.98Z"/>
          <path class="cls-2" d="m361.67,882.47c-6.55,11.16-.15,32.44,10.31,46.72,14.93,20.37,43.62,33.31,66.48,37.67,19.18,3.66,37.49-1,45.56-12.95,2.17-3.21,2.7-7.13,4.74-10.36,1.56-2.47,2.79-3.77-.44-7.36-8.01-8.91-22.48-17.55-32.96-23.07-11.53-6.07-24.29-12.91-36.22-16.56-10.71-3.27-21.38-5.12-32.13-8.25-5.47-1.59-10.25-3.22-15.56-3.75-2.66-.26-8.65-3.05-9.78-2.09Z"/>
          <path class="cls-2" d="m437.92,989.36c2.59-1.66,3.11-2.93,6.77-1.95,2.84.77,5.36,2.86,7.27,5,2.36,2.65,5.02,7.97,2.8,9.91-3.96,3.45-20.43-4.88-16.71-9.99l-.13-2.97Z"/>
        </g>
      </g>
    </g>
  </g>
</svg>