<?xml version="1.0" encoding="UTF-8"?>
<svg xmlns="http://www.w3.org/2000/svg" xmlns:xlink="http://www.w3.org/1999/xlink" viewBox="0 0 619 721">
  <defs>
    <style>
      .cls-1 {
        fill: #f59062;
      }

      .cls-1, .cls-2, .cls-3, .cls-4, .cls-5, .cls-6, .cls-7, .cls-8, .cls-9, .cls-10, .cls-11, .cls-12, .cls-13, .cls-14, .cls-15, .cls-16, .cls-17 {
        fill-rule: evenodd;
      }

      .cls-18 {
        fill: #3f2d78;
      }

      .cls-19, .cls-2, .cls-20 {
        fill: #fff;
      }

      .cls-21 {
        fill: url(#linear-gradient-4);
      }

      .cls-21, .cls-22, .cls-23, .cls-24, .cls-25, .cls-26, .cls-27, .cls-28, .cls-29, .cls-30 {
        mix-blend-mode: screen;
      }

      .cls-22 {
        fill: url(#_Áåçûìÿííûé_ãðàäèåíò_217-3);
      }

      .cls-3 {
        fill: url(#_Áåçûìÿííûé_ãðàäèåíò_104);
      }

      .cls-23 {
        fill: url(#linear-gradient-2);
      }

      .cls-4 {
        fill: url(#_Áåçûìÿííûé_ãðàäèåíò_129-6);
      }

      .cls-5 {
        fill: url(#_Áåçûìÿííûé_ãðàäèåíò_220-2);
      }

      .cls-24 {
        fill: url(#linear-gradient);
      }

      .cls-25 {
        fill: url(#_Áåçûìÿííûé_ãðàäèåíò_217);
      }

      .cls-31 {
        isolation: isolate;
      }

      .cls-6 {
        fill: url(#_Áåçûìÿííûé_ãðàäèåíò_129-4);
      }

      .cls-7 {
        fill: url(#_Áåçûìÿííûé_ãðàäèåíò_129);
      }

      .cls-8 {
        fill: url(#_Áåçûìÿííûé_ãðàäèåíò_112);
      }

      .cls-9 {
        fill: #2559a5;
      }

      .cls-26 {
        fill: url(#linear-gradient-3);
      }

      .cls-32, .cls-20 {
        mix-blend-mode: soft-light;
      }

      .cls-27 {
        fill: url(#_Áåçûìÿííûé_ãðàäèåíò_266-3);
      }

      .cls-10 {
        fill: url(#_Áåçûìÿííûé_ãðàäèåíò_129-2);
      }

      .cls-28 {
        fill: url(#_Áåçûìÿííûé_ãðàäèåíò_266);
      }

      .cls-29 {
        fill: url(#_Áåçûìÿííûé_ãðàäèåíò_266-2);
      }

      .cls-11 {
        fill: url(#_Áåçûìÿííûé_ãðàäèåíò_129-3);
      }

      .cls-33 {
        fill: #77469a;
      }

      .cls-12 {
        fill: #30245f;
      }

      .cls-13 {
        fill: url(#_Áåçûìÿííûé_ãðàäèåíò_129-5);
      }

      .cls-14 {
        fill: url(#_Áåçûìÿííûé_ãðàäèåíò_220-3);
      }

      .cls-15 {
        fill: #4cc0ef;
      }

      .cls-16 {
        fill: url(#_Áåçûìÿííûé_ãðàäèåíò_176);
      }

      .cls-17 {
        fill: url(#_Áåçûìÿííûé_ãðàäèåíò_220);
      }

      .cls-30 {
        fill: url(#_Áåçûìÿííûé_ãðàäèåíò_217-2);
      }
    </style>
    <linearGradient id="_Áåçûìÿííûé_ãðàäèåíò_129" data-name="Áåçûìÿííûé ãðàäèåíò 129" x1="304.32" y1="158.7" x2="304.32" y2="6.55" gradientUnits="userSpaceOnUse">
      <stop offset="0" stop-color="#f4ea30"/>
      <stop offset="1" stop-color="#f27c5a"/>
    </linearGradient>
    <radialGradient id="_Áåçûìÿííûé_ãðàäèåíò_104" data-name="Áåçûìÿííûé ãðàäèåíò 104" cx="301.52" cy="-5202.05" fx="301.52" fy="-5202.05" r="169.52" gradientTransform="translate(0 7492.23) scale(1 1.4)" gradientUnits="userSpaceOnUse">
      <stop offset=".02" stop-color="#7f4b9c"/>
      <stop offset=".51" stop-color="#723f95"/>
      <stop offset=".99" stop-color="#622f8d"/>
    </radialGradient>
    <radialGradient id="_Áåçûìÿííûé_ãðàäèåíò_112" data-name="Áåçûìÿííûé ãðàäèåíò 112" cx="289.26" cy="4963.66" fx="289.26" fy="4963.66" r="260.97" gradientTransform="translate(0 -3144.76) scale(1 .66)" gradientUnits="userSpaceOnUse">
      <stop offset="0" stop-color="#d4cce5"/>
      <stop offset="1" stop-color="#8870b0"/>
    </radialGradient>
    <linearGradient id="_Áåçûìÿííûé_ãðàäèåíò_129-2" data-name="Áåçûìÿííûé ãðàäèåíò 129" x1="309.54" y1="237.74" x2="309.54" y2="228.75" xlink:href="#_Áåçûìÿííûé_ãðàäèåíò_129"/>
    <linearGradient id="_Áåçûìÿííûé_ãðàäèåíò_129-3" data-name="Áåçûìÿííûé ãðàäèåíò 129" x1="415.24" y1="239.85" x2="415.24" y2="231.56" xlink:href="#_Áåçûìÿííûé_ãðàäèåíò_129"/>
    <linearGradient id="_Áåçûìÿííûé_ãðàäèåíò_129-4" data-name="Áåçûìÿííûé ãðàäèåíò 129" x1="483.37" y1="250.31" x2="483.37" y2="245.01" xlink:href="#_Áåçûìÿííûé_ãðàäèåíò_129"/>
    <linearGradient id="_Áåçûìÿííûé_ãðàäèåíò_129-5" data-name="Áåçûìÿííûé ãðàäèåíò 129" x1="7337.66" y1="239.53" x2="7337.66" y2="231.24" gradientTransform="translate(7551.55) rotate(-180) scale(1 -1)" xlink:href="#_Áåçûìÿííûé_ãðàäèåíò_129"/>
    <linearGradient id="_Áåçûìÿííûé_ãðàäèåíò_129-6" data-name="Áåçûìÿííûé ãðàäèåíò 129" x1="7418.04" y1="249.79" x2="7418.04" y2="244.49" gradientTransform="translate(7551.55) rotate(-180) scale(1 -1)" xlink:href="#_Áåçûìÿííûé_ãðàäèåíò_129"/>
    <radialGradient id="_Áåçûìÿííûé_ãðàäèåíò_176" data-name="Áåçûìÿííûé ãðàäèåíò 176" cx="298.13" cy="-5527.87" fx="298.13" fy="-5527.87" r="100.54" gradientTransform="translate(0 8454.7) scale(1 1.51)" gradientUnits="userSpaceOnUse">
      <stop offset=".02" stop-color="#735fa7"/>
      <stop offset=".43" stop-color="#6d52a0"/>
      <stop offset=".99" stop-color="#623b94"/>
    </radialGradient>
    <linearGradient id="_Áåçûìÿííûé_ãðàäèåíò_220" data-name="Áåçûìÿííûé ãðàäèåíò 220" x1="307.41" y1="197.34" x2="307.41" y2="190.24" gradientUnits="userSpaceOnUse">
      <stop offset="0" stop-color="#94c2e8"/>
      <stop offset=".32" stop-color="#5c4e86"/>
    </linearGradient>
    <radialGradient id="_Áåçûìÿííûé_ãðàäèåíò_217" data-name="Áåçûìÿííûé ãðàäèåíò 217" cx="160.65" cy="-2371.56" fx="160.65" fy="-2371.56" r="17.12" gradientTransform="translate(1348.71 2927.68) rotate(-17.61) scale(1.44 1.23) skewX(6.61)" gradientUnits="userSpaceOnUse">
      <stop offset="0" stop-color="#3c57a6"/>
      <stop offset=".03" stop-color="#38529c"/>
      <stop offset=".2" stop-color="#27396d"/>
      <stop offset=".37" stop-color="#192445"/>
      <stop offset=".54" stop-color="#0e1427"/>
      <stop offset=".7" stop-color="#060911"/>
      <stop offset=".86" stop-color="#010204"/>
      <stop offset="1" stop-color="#000"/>
    </radialGradient>
    <linearGradient id="_Áåçûìÿííûé_ãðàäèåíò_220-2" data-name="Áåçûìÿííûé ãðàäèåíò 220" x1="561.84" y1="206.72" x2="561.84" y2="199.62" xlink:href="#_Áåçûìÿííûé_ãðàäèåíò_220"/>
    <radialGradient id="_Áåçûìÿííûé_ãðàäèåíò_217-2" data-name="Áåçûìÿííûé ãðàäèåíò 217" cx="319.13" cy="-2301.81" fx="319.13" fy="-2301.81" r="17.12" xlink:href="#_Áåçûìÿííûé_ãðàäèåíò_217"/>
    <linearGradient id="_Áåçûìÿííûé_ãðàäèåíò_220-3" data-name="Áåçûìÿííûé ãðàäèåíò 220" x1="65.51" y1="206.72" x2="65.51" y2="199.62" xlink:href="#_Áåçûìÿííûé_ãðàäèåíò_220"/>
    <radialGradient id="_Áåçûìÿííûé_ãðàäèåíò_217-3" data-name="Áåçûìÿííûé ãðàäèåíò 217" cx="4.48" cy="-2423.72" fx="4.48" fy="-2423.72" r="17.12" xlink:href="#_Áåçûìÿííûé_ãðàäèåíò_217"/>
    <radialGradient id="_Áåçûìÿííûé_ãðàäèåíò_266" data-name="Áåçûìÿííûé ãðàäèåíò 266" cx="2768.93" cy="-2014.21" fx="2768.93" fy="-2014.21" r="19.07" gradientTransform="translate(-7093.2 3194.56) scale(2.67 1.47)" gradientUnits="userSpaceOnUse">
      <stop offset="0" stop-color="#f6981f"/>
      <stop offset=".07" stop-color="#d5841a"/>
      <stop offset=".21" stop-color="#9d6113"/>
      <stop offset=".35" stop-color="#6d430d"/>
      <stop offset=".49" stop-color="#462b08"/>
      <stop offset=".63" stop-color="#271804"/>
      <stop offset=".76" stop-color="#110a02"/>
      <stop offset=".88" stop-color="#040200"/>
      <stop offset="1" stop-color="#000"/>
    </radialGradient>
    <radialGradient id="_Áåçûìÿííûé_ãðàäèåíò_266-2" data-name="Áåçûìÿííûé ãðàäèåíò 266" cx="2732.34" cy="-2010.81" fx="2732.34" fy="-2010.81" r="6.85" xlink:href="#_Áåçûìÿííûé_ãðàäèåíò_266"/>
    <radialGradient id="_Áåçûìÿííûé_ãðàäèåíò_266-3" data-name="Áåçûìÿííûé ãðàäèåíò 266" cx="2832.66" cy="-2003.96" fx="2832.66" fy="-2003.96" r="6.85" xlink:href="#_Áåçûìÿííûé_ãðàäèåíò_266"/>
    <linearGradient id="linear-gradient" x1="303.85" y1="702.93" x2="303.85" y2="257.19" gradientUnits="userSpaceOnUse">
      <stop offset="0" stop-color="#000" stop-opacity="0"/>
      <stop offset=".09" stop-color="#031015" stop-opacity=".15"/>
      <stop offset=".3" stop-color="#0a3140" stop-opacity=".45"/>
      <stop offset=".5" stop-color="#0f4b62" stop-opacity=".69"/>
      <stop offset=".68" stop-color="#135d7b" stop-opacity=".86"/>
      <stop offset=".86" stop-color="#166989" stop-opacity=".96"/>
      <stop offset="1" stop-color="#176d8f"/>
    </linearGradient>
    <linearGradient id="linear-gradient-2" x1="259.14" y1="707.91" x2="259.14" y2="254.81" xlink:href="#linear-gradient"/>
    <linearGradient id="linear-gradient-3" x1="319.75" y1="709.54" x2="319.75" y2="254.81" xlink:href="#linear-gradient"/>
    <linearGradient id="linear-gradient-4" x1="361.69" y1="710.54" x2="361.69" y2="258.6" xlink:href="#linear-gradient"/>
  </defs>
  <g class="cls-31">
    <g id="Layer_1" data-name="Layer 1">
      <g>
        <path class="cls-7" d="m115.56,153.2S197.39,12.08,297.5,6.69c103.88-5.59,195.57,152,195.57,152l-377.51-5.5Z"/>
        <path class="cls-3" d="m618.58,212.41c-1.58,5.25-115.38,54.1-309.03,54.1C130.69,266.51-1.25,220.54.52,212.41c1.24-5.69,138.36-24.86,309.03-24.86s310.21,20.93,309.03,24.86Z"/>
        <path class="cls-8" d="m.52,212.41s89.79-86.71,296.98-86.71,321.08,86.71,321.08,86.71c0,0-85-19.68-321.08-19.68C108.98,192.73.52,212.41.52,212.41Z"/>
        <path class="cls-18" d="m557.29,236.28l-1.31-.4c1.15-3.73-5.61-6.79-11.48-8.69-39.83-12.93-166.32-17.33-267-15.97-125.96,1.72-213.55,11.55-217.96,24.48l-1.29-.44c5.66-16.6,116.96-24.01,219.23-25.4,100.79-1.38,227.47,3.06,267.44,16.03,9.52,3.09,13.56,6.49,12.36,10.39Z"/>
        <path class="cls-12" d="m183.08,258.9s105.19-13.83,245.68,1.13c0,0-125.78,13.77-245.68-1.13Z"/>
        <path class="cls-9" d="m195.54,260.03s98.92-12.6,220.32,1.36c0,0-114.03,13.02-220.32-1.36Z"/>
        <path class="cls-15" d="m218.53,257.55s114.15,9.26,170.65.49c0,0-103.9-6.29-170.65-.49Z"/>
        <path class="cls-10" d="m330.41,233.25c0,2.48-9.34,4.49-20.87,4.49s-20.86-2.01-20.86-4.49c0-.34.18-.68.53-1.01,2.11-2,10.41-3.49,20.33-3.49,8.63,0,16.04,1.13,19.22,2.74,1.06.54,1.65,1.14,1.65,1.76Z"/>
        <path class="cls-2" d="m328.76,231.53c0,2.13-8.93,3.85-19.95,3.85-9.75,0-17.88-1.36-19.61-3.14,2.11-2,10.41-3.49,20.33-3.49,8.63,0,16.04,1.13,19.22,2.74,0,.01,0,.03,0,.04Z"/>
        <g>
          <path class="cls-11" d="m428.57,235.71c0,2.28-5.97,4.14-13.33,4.14-6.08,0-11.21-1.27-12.81-3h-.01c-.33-.36-.51-.74-.51-1.14,0-.32.11-.63.34-.93,1.34-1.85,6.65-3.22,12.99-3.22,3.9,0,7.41.52,9.84,1.35,1.02.34,1.84.74,2.43,1.18.69.5,1.06,1.06,1.06,1.63Z"/>
          <path class="cls-2" d="m425.61,234.08c0,2.28-5.97,4.13-13.34,4.13-3.9,0-7.42-.52-9.85-1.35h-.01c-.33-.36-.51-.74-.51-1.14,0-.32.11-.63.34-.93,1.34-1.85,6.65-3.22,12.99-3.22,3.9,0,7.41.52,9.84,1.35.35.37.54.76.54,1.17Z"/>
        </g>
        <g>
          <path class="cls-6" d="m494.17,247.66c0,1.46-4.84,2.65-10.81,2.65-4.93,0-9.09-.81-10.38-1.92h0c-.27-.23-.41-.47-.41-.73,0-.2.09-.4.28-.59,1.09-1.18,5.39-2.06,10.53-2.06,3.16,0,6,.33,7.97.86.83.22,1.49.47,1.97.75.56.32.86.68.86,1.04Z"/>
          <path class="cls-2" d="m491.78,246.62c0,1.46-4.84,2.64-10.81,2.64-3.16,0-6.01-.33-7.98-.87h0c-.27-.23-.41-.47-.41-.73,0-.2.09-.4.28-.59,1.09-1.18,5.39-2.06,10.53-2.06,3.16,0,6,.33,7.97.86.29.24.44.48.44.75Z"/>
        </g>
        <g>
          <path class="cls-13" d="m200.56,235.39c0,2.28,5.97,4.14,13.33,4.14,6.08,0,11.21-1.27,12.81-3h.01c.33-.36.51-.74.51-1.14,0-.32-.11-.63-.34-.93-1.34-1.85-6.65-3.22-12.99-3.22-3.9,0-7.41.52-9.84,1.35-1.02.34-1.84.74-2.43,1.18-.69.5-1.06,1.06-1.06,1.63Z"/>
          <path class="cls-2" d="m203.51,233.75c0,2.28,5.97,4.13,13.34,4.13,3.9,0,7.42-.52,9.85-1.35h.01c.33-.36.51-.74.51-1.14,0-.32-.11-.63-.34-.93-1.34-1.85-6.65-3.22-12.99-3.22-3.9,0-7.41.52-9.84,1.35-.35.37-.54.76-.54,1.17Z"/>
        </g>
        <g>
          <path class="cls-4" d="m122.7,247.14c0,1.46,4.84,2.65,10.81,2.65,4.93,0,9.09-.81,10.38-1.92h0c.27-.23.41-.47.41-.73,0-.2-.09-.4-.28-.59-1.09-1.18-5.39-2.06-10.53-2.06-3.16,0-6,.33-7.97.86-.83.22-1.49.47-1.97.75-.56.32-.86.68-.86,1.04Z"/>
          <path class="cls-2" d="m125.1,246.09c0,1.46,4.84,2.64,10.81,2.64,3.16,0,6.01-.33,7.98-.87h0c.27-.23.41-.47.41-.73,0-.2-.09-.4-.28-.59-1.09-1.18-5.39-2.06-10.53-2.06-3.16,0-6,.33-7.97.86-.29.24-.44.48-.44.75Z"/>
        </g>
        <path class="cls-33" d="m570.24,185.51c-133.9-57.1-269.74-54.69-360.12-42.6-97.95,13.09-165.09,40.05-165.75,40.31l-.52-1.27c.67-.27,67.94-27.28,166.05-40.4,90.56-12.11,226.68-14.53,360.88,42.7l-.54,1.25Z"/>
        <path class="cls-18" d="m.67,213.08l-.29-1.33c.91-.19,93.12-19.51,313.91-19.51s303.65,19.32,304.46,19.51l-.32,1.33c-.81-.19-83.56-19.48-304.14-19.48S1.57,212.89.67,213.08Z"/>
        <path class="cls-33" d="m69.02,203.67l-.93-1c.37-.35,37.65-34.91,65.61-47.31l.55,1.25c-27.75,12.3-64.86,46.71-65.23,47.06Z"/>
        <path class="cls-33" d="m561.44,204.68c-42.73-35.1-106.36-54.96-107-55.15l.4-1.31c.64.2,64.52,20.14,107.46,55.41l-.87,1.06Z"/>
        <path class="cls-19" d="m348.46,25.97s8.11,9.16,23.88,26.34l14.94.19s-8.22-14.06-30.71-26.53h-8.11Z"/>
        <path class="cls-19" d="m118.86,147.8S208.73,5.16,307.24,8.35c98.51,3.19,179.04,139.45,179.04,139.45,0,0-88.37-146.53-176.73-146.63-101.76-.11-190.7,146.63-190.7,146.63Z"/>
        <path class="cls-1" d="m183.75,131.48s52.3-33.38,126.37-37c74.08-3.62,127.66,35.94,127.66,35.94,0,0-130.2-27.73-254.03,1.06Z"/>
        <path class="cls-19" d="m136.83,134.23s19.82-30.25,44.1-52.39l8.56-1.99s-24.74,31.4-33.26,49l-19.39,5.38Z"/>
        <path class="cls-16" d="m115.56,153.2l4.26-6.78s226.23-67.44,366.46,1.37l4.15,6.54s-63.06-25.72-190.69-25.72-184.18,24.58-184.18,24.58Z"/>
        <path class="cls-20" d="m141.23,199.61s152.43-14.75,384.48,2.7c0,0-162.22-11.86-384.48-2.7Z"/>
        <g>
          <path class="cls-17" d="m311.74,193.79c0,1.96-1.94,3.55-4.33,3.55s-4.33-1.59-4.33-3.55,1.94-3.55,4.33-3.55,4.33,1.59,4.33,3.55Z"/>
          <path class="cls-2" d="m310.82,193.79c0,1.54-1.53,2.79-3.41,2.79s-3.41-1.25-3.41-2.79,1.53-2.79,3.41-2.79,3.41,1.25,3.41,2.79Z"/>
        </g>
        <path class="cls-25" d="m332.28,186.34c5.03,10.62-1.42,22.57-14.39,26.69-12.97,4.12-27.56-1.16-32.59-11.78-5.03-10.62,1.42-22.57,14.39-26.69,12.97-4.12,27.56,1.16,32.59,11.78Z"/>
        <g>
          <path class="cls-5" d="m566.17,203.17c0,1.96-1.94,3.55-4.33,3.55s-4.33-1.59-4.33-3.55,1.94-3.55,4.33-3.55,4.33,1.59,4.33,3.55Z"/>
          <path class="cls-2" d="m565.25,203.17c0,1.54-1.53,2.79-3.41,2.79s-3.41-1.25-3.41-2.79,1.53-2.79,3.41-2.79,3.41,1.25,3.41,2.79Z"/>
        </g>
        <path class="cls-30" d="m586.7,195.72c5.03,10.62-1.42,22.57-14.39,26.69-12.97,4.12-27.56-1.16-32.59-11.78-5.03-10.62,1.42-22.57,14.39-26.69,12.97-4.12,27.56,1.16,32.59,11.78Z"/>
        <g>
          <path class="cls-14" d="m69.84,203.17c0,1.96-1.94,3.55-4.33,3.55s-4.33-1.59-4.33-3.55,1.94-3.55,4.33-3.55,4.33,1.59,4.33,3.55Z"/>
          <path class="cls-2" d="m68.92,203.17c0,1.54-1.53,2.79-3.41,2.79s-3.41-1.25-3.41-2.79,1.53-2.79,3.41-2.79,3.41,1.25,3.41,2.79Z"/>
        </g>
        <path class="cls-22" d="m90.38,195.72c5.03,10.62-1.42,22.57-14.39,26.69-12.97,4.12-27.56-1.16-32.59-11.78-5.03-10.62,1.42-22.57,14.39-26.69,12.97-4.12,27.56,1.16,32.59,11.78Z"/>
        <g class="cls-32">
          <path class="cls-2" d="m295.78,164.78c.43.25,1.04.73,2.01.65.45-.04.84-.14,1.27-.2.38-.05.78-.08,1.18-.09.55-.02,1.39-.13,1.81-.28.32-.12-.01-.24-.31-.31-.33-.09-.67-.17-1.07-.18-.52-.01-1.03-.02-1.53-.07-.19-.02-.37-.08-.57-.1-.27-.02-.56-.02-.84-.01-.59,0-1.72.18-1.95.6Z"/>
          <path class="cls-2" d="m303.88,165.8c-.27.03-.49.01-.66-.06.02-.37,1.9-.5,2.27-.15.42.4-1,.45-1.61.33v-.12Z"/>
          <path class="cls-2" d="m315.95,172.66c-.24-.19-.57-.36-.44-.57.11-.18.38-.33.74-.45.44-.15,1-.21,1.56-.28.27-.03.53-.08.81-.05,1.12.12,1.91.62,2.24,1.01.19.23.4.44.45.68.03.16.1.33.17.49.06.14.2.26.11.4-.07.1-.29.23-.45.32-.52.26-1.27.43-2.11.42-1.46-.02-2.63-.7-3.22-1.17-.49-.38-1.09-.99.16-.81Z"/>
          <path class="cls-2" d="m313.96,170.87c.42.05.55.1.77-.03.17-.1.16-.23.07-.33-.17-.2-.94-.45-1.47-.3-.26.08-.74.25-.77.38-.06.24.83.55,1.39.52v-.24Z"/>
          <path class="cls-2" d="m328.25,163.41c.24.03.41.03.67.03.57,0,1.14,0,1.7,0,1.07,0,2.14.06,3.21.06.78,0,1.55-.05,2.31-.1.39-.02.81-.05,1.19-.09-.03-.04-.22-.04-.31-.06-.3-.05-.63-.08-.91-.14-.64-.14-1.31-.27-1.97-.39-.12-.02-.27-.03-.38-.06-.14-.04-.27-.1-.4-.15-.23-.08-.49-.15-.78-.2-.67-.11-1.48-.11-2.2-.1-.25,0-.48.03-.73.03-.27,0-.52,0-.78.02-.56.03-1.08.14-1.57.25-.57.13-1.56.28-1.72.56-.08.14.32.19.6.21.37.03.74.03,1.11.05.48.03,1.07.09.95.08Z"/>
          <path class="cls-2" d="m323.2,163.11c-.27-.06-.77-.15-.68-.31.09-.16.66-.16.97-.14.74.04-.03.41-.52.39l.23.06Z"/>
          <path class="cls-2" d="m327.86,160.28c.29.05.55.1.88.08.46-.04.64-.17.66-.35.03-.27-.15-.45-.85-.5-.43-.03-1.08.08-1.38.2-.14.06-.22.14-.23.22-.03.16.3.24.62.32l.31.03Z"/>
          <path class="cls-2" d="m349.18,154.31c-.47-.4-.93-.81-1.15-1.24-.2-.38-.11-.77-.2-1.15-.13-.54-.6-1.04-.92-1.57-.29-.46-.46-.91-.16-1.38.23-.36.81-.73,1.67-.9.53-.1,1.12-.16,1.71-.19.28-.01.54-.02.81-.03.18,0,.29-.03.5-.03.26,0,.27.04.27.14,0,.19-.05.32-.31.48-.38.25-.56.55-.69.83-.13.28-.3.55-.39.83-.08.28-.17.55-.27.83-.08.24-.19.47-.27.71-.08.23-.08.47-.13.71-.04.2.01.39-.03.59-.03.12-.06.24-.06.37,0,.1-.02.19-.06.29-.04.09,0,.18-.01.28-.01.06-.13.27-.31.45Z"/>
          <path class="cls-2" d="m344.75,151.78c.13.06.24.14.44.16.08,0,.23,0,.31,0,.45-.04.48-.33.48-.48,0-.4-.31-.86-1.05-1.15-.47-.19-1.3-.36-1.98-.3-.95.08-1.48.48-1.68.82-.19.32-.23.77.42,1.02.23.09.52.17.85.18.25,0,.49-.03.75-.03.34,0,.63.07.96,0,.23-.04.39-.12.5-.21Z"/>
          <path class="cls-2" d="m344.82,149.39c-.28.02-.32.01-.53-.05-.2-.06-.28-.12-.22-.22.09-.15.55-.24.91-.18.23.04.36.16.38.26.03.12-.18.21-.46.25l-.08-.06Z"/>
          <path class="cls-2" d="m322.67,146.32c.19.16.26.22.63.31.18.04.32.06.53.03.52-.09,1.04-.34,1.22-.55.13-.15.1-.34-.09-.48-.17-.12-.55-.22-.81-.31-.24-.08-.5-.16-.77-.23-.46-.13-.98-.23-1.51-.1-.47.12-.84.37-.81.59.03.18.18.29.39.44.2.14.32.27,1.22.31Z"/>
          <path class="cls-2" d="m324.96,147.12c.02-.12.1-.24.24-.34.14,0,.21-.06.37-.04.23.03.16.18.15.25,0,.09-.11.18-.27.24-.06.02-.32.12-.34.04l-.15-.15Z"/>
          <path class="cls-2" d="m342.84,157.89c.35.08.74.16,1.12.03.35-.12.28-.36.1-.5-.09-.08-.19-.17-.43-.18-.24-.01-.5,0-.74,0-.57,0-.98-.23-1.53-.03-.23.08-.41.26-.35.38.11.23.72.34,1.21.42l.61-.12Z"/>
          <path class="cls-2" d="m364,175.97c.16.26.47.48.93.67.08,0,.17,0,.25,0,.45.06.9.07,1.34-.01,1.3-.27,1.15-.8,1.14-1.28,0-.52.14-1.17-1.69-.94-.84.11-2.2.26-2.73.56-.28.16-.15.24,0,.4.19.2.37.46.75.61h0Z"/>
          <path class="cls-2" d="m493.98,208.82c.16.26.47.48.93.67.08,0,.17,0,.25,0,.45.06.9.07,1.34-.01,1.3-.27,1.15-.8,1.14-1.28,0-.52.14-1.17-1.69-.94-.84.11-2.2.26-2.73.56-.28.16-.15.24,0,.4.19.2.37.46.75.61h0Z"/>
          <path class="cls-2" d="m366.06,170.06c-.36-.08-1.05-.2-1.11-.4-.05-.16.2-.22.42-.34.48-.26,1.11-.51,1.96-.25.38.11.63.39.54.59-.08.17-.61.46-1.13.4h-.69Z"/>
          <path class="cls-2" d="m250.56,145.36c1,.19,1.06.21,2.08.1.76-.08,1.62-.14,2.22-.36.79-.3.6-.7.8-1.07.16-.29.21-.46-.29-.71-.48-.24-1.26-.49-1.95-.64-2.27-.5-5.59-.48-7.91-.07-1.53.27-3.27.66-3.76,1.34-.41.57-.08,1.22,1.04,1.62,1.13.41,2.77.51,4.23.39.35-.04.69-.08,1.04-.11.45-.02.9-.03,1.35-.01.48-.02.91-.12,1.17-.45Z"/>
          <path class="cls-2" d="m123.62,211.51c1,.19,1.06.21,2.08.1.76-.08,1.62-.14,2.22-.36.79-.3.6-.7.8-1.07.16-.29.21-.46-.29-.71-.48-.24-1.26-.49-1.95-.64-2.27-.5-5.59-.48-7.91-.07-1.53.27-3.27.66-3.76,1.34-.41.57-.08,1.22,1.04,1.62,1.13.41,2.77.51,4.23.39.35-.04.69-.08,1.04-.11.45-.02.9-.03,1.35-.01.48-.02.91-.12,1.17-.45Z"/>
          <path class="cls-2" d="m254.45,146.44c.76-.37.63-.32,1.6-.38.43-.02.52-.09.92-.05.49.04.98.32.94.53-.04.16-.81.4-1.12.47-.48.1-.73.06-1.2-.03l-1.15-.54Z"/>
          <path class="cls-2" d="m254.22,184.11c.83.08,1.82.19,2.39-.17.39-.25,0-.62-.43-.84-.6-.31-2.12-.64-3.11-.69-1.06-.05-2.19.44-2.31.82-.25.77,2.89,1.19,4.38,1.23l-.92-.36Z"/>
          <path class="cls-2" d="m248.66,230.67c.83.08,1.82.19,2.39-.17.39-.25,0-.62-.43-.84-.6-.31-2.12-.64-3.11-.69-1.06-.05-2.19.44-2.31.82-.25.77,2.89,1.19,4.38,1.23l-.92-.36Z"/>
          <path class="cls-2" d="m263.39,184.65c-.23.04-.91.23-1.2.2-.14-.01-.16-.08-.27-.1-.4-.1-.75-.2-.83-.38-.17-.38.19-.69,1.05-.88.56-.13,1.14-.13,1.61.06.51.2.75.64.11.84l-.46.27Z"/>
          <path class="cls-2" d="m369.73,150.37c1.4.26,2.96.23,4.49.11.97-.07,2.26-.13,2.7-.53,1.02-.96-4.24-1.69-5.92-1.87-1.38-.15-3.05-.21-4.48-.11-.88.06-2.63.33-3.08.66-.58.43.13.92,1.01,1.18,2.02.61,4.61.45,6.9.73l-1.6-.18Z"/>
          <path class="cls-2" d="m369.38,150.87c.04.1.13.54.39.68.18.11.46.27.78.3.45.04.9-.08,1.18-.2.19-.08.38-.23.27-.34-.09-.09-.4-.16-.59-.21-.34-.1-.72-.17-1.12-.24-.18-.03-.36-.08-.57-.09-.32-.02-.43.06-.69.09h.34Z"/>
          <path class="cls-2" d="m382.22,151.4c.13-.11.26-.22.38-.32.32.02.7-.03.91.1.14.08.15.31.06.4-.13.14-.41.23-.78.22-.44,0-.61-.16-.69-.31l.11-.09Z"/>
          <path class="cls-2" d="m399.52,166.26c.4.05.71.07,1.04-.06.47-.18.57-.45.17-.66-.56-.28-1.82-.59-2.78-.51-.61.05-1.32.36-.95.6.18.12.44.29.69.38.45.16,1.12.23,1.72.24h.11Z"/>
          <path class="cls-2" d="m197.16,154.4c.27.11.36.17.72.2.42.03.82.05,1.2-.05.75-.18,1.25-.65,1.44-.98.18-.3.08-.54-.38-.79-.51-.28-1.17-.46-2.04-.5-.92-.05-1.59.02-2.15.33-.45.25-.95.58-1.07.89-.12.28.08.48.55.69.41.19,1.15.44,1.73.21Z"/>
          <path class="cls-2" d="m200.02,151.89c-.24,0-.52.01-.59-.09-.09-.13.23-.37.46-.45.19-.07.64-.15.91-.13.22.01.4.09.52.16.21.11.25.25.07.36-.12.08-.39.27-.69.24l-.69-.09Z"/>
          <path class="cls-2" d="m169.66,159.55c.44,0,.66,0,1.03-.09.55-.13,1.02-.33,1.36-.53.45-.27.79-.61.72-.94-.05-.23-.73-.46-1.29-.49-.67-.04-1.66.06-2.2.22-1.06.31-1.92.86-1.81,1.39.13.61,2.46.63,2.18.45Z"/>
          <path class="cls-2" d="m175.16,156.91c-.16.07-.35.11-.57.14-.1-.09-.36-.12-.45-.21-.09-.09-.02-.21.09-.3.17-.12.45-.2.81-.21.4,0,.49.05.66.18.12.09.18.11.04.21-.07.05-.24.14-.35.19h-.23Z"/>
        </g>
        <ellipse class="cls-28" cx="311.74" cy="232.07" rx="51.01" ry="28.05"/>
        <path class="cls-29" d="m232.22,237.06c0,5.57-8.21,10.08-18.33,10.08s-18.33-4.51-18.33-10.08,8.21-10.08,18.33-10.08,18.33,4.51,18.33,10.08Z"/>
        <path class="cls-27" d="m500.5,247.14c0,5.57-8.21,10.08-18.33,10.08s-18.33-4.51-18.33-10.08,8.21-10.08,18.33-10.08,18.33,4.51,18.33,10.08Z"/>
        <path class="cls-24" d="m218.53,261.24l12.26,441.68,156.49-16.6,1.89-423.93s-124.5-10.9-170.65-1.15Z"/>
        <polygon class="cls-23" points="240.56 707.91 232.22 257.19 286.05 254.81 286.05 702.2 240.56 707.91"/>
        <polygon class="cls-26" points="315.7 254.81 317.2 709.54 322.3 709.54 323.8 256.43 315.7 254.81"/>
        <polygon class="cls-21" points="353.62 258.6 353.62 710.54 369.77 704.35 366.26 260.66 353.62 258.6"/>
      </g>
    </g>
  </g>
</svg>