<?xml version="1.0" encoding="UTF-8"?>
<svg xmlns="http://www.w3.org/2000/svg" xmlns:xlink="http://www.w3.org/1999/xlink" viewBox="0 0 510 623">
  <defs>
    <style>
      .cls-1 {
        fill: url(#_Áåçûìÿííûé_ãðàäèåíò_183-2);
      }

      .cls-1, .cls-2, .cls-3, .cls-4, .cls-5, .cls-6, .cls-7, .cls-8, .cls-9, .cls-10, .cls-11, .cls-12, .cls-13, .cls-14, .cls-15, .cls-16, .cls-17, .cls-18, .cls-19, .cls-20, .cls-21, .cls-22, .cls-23, .cls-24, .cls-25, .cls-26, .cls-27, .cls-28, .cls-29, .cls-30, .cls-31, .cls-32, .cls-33, .cls-34, .cls-35, .cls-36, .cls-37, .cls-38 {
        fill-rule: evenodd;
      }

      .cls-1, .cls-8, .cls-13, .cls-18, .cls-25 {
        opacity: .5;
      }

      .cls-1, .cls-13, .cls-18 {
        mix-blend-mode: multiply;
      }

      .cls-2 {
        fill: url(#_Áåçûìÿííûé_ãðàäèåíò_5-2);
      }

      .cls-3 {
        fill: url(#_Áåçûìÿííûé_ãðàäèåíò_136-3);
      }

      .cls-4 {
        fill: url(#_Áåçûìÿííûé_ãðàäèåíò_259-2);
      }

      .cls-5 {
        fill: url(#_Áåçûìÿííûé_ãðàäèåíò_269-2);
      }

      .cls-39, .cls-7, .cls-8, .cls-40, .cls-33 {
        fill: #fff;
      }

      .cls-6 {
        fill: url(#_Áåçûìÿííûé_ãðàäèåíò_229);
      }

      .cls-41, .cls-32 {
        fill: #54345f;
      }

      .cls-42 {
        fill: url(#linear-gradient-4);
      }

      .cls-42, .cls-43, .cls-44, .cls-45, .cls-46, .cls-47, .cls-48 {
        mix-blend-mode: screen;
      }

      .cls-8, .cls-40, .cls-49, .cls-33 {
        mix-blend-mode: soft-light;
      }

      .cls-43 {
        fill: url(#linear-gradient-2);
      }

      .cls-44 {
        fill: url(#linear-gradient);
      }

      .cls-9 {
        fill: url(#_Áåçûìÿííûé_ãðàäèåíò_199);
      }

      .cls-50 {
        isolation: isolate;
      }

      .cls-10, .cls-25 {
        fill: #31225f;
      }

      .cls-11 {
        fill: url(#_Áåçûìÿííûé_ãðàäèåíò_259-7);
      }

      .cls-12 {
        fill: url(#_Áåçûìÿííûé_ãðàäèåíò_259);
      }

      .cls-13 {
        fill: url(#_Áåçûìÿííûé_ãðàäèåíò_183);
      }

      .cls-45 {
        fill: url(#linear-gradient-3);
      }

      .cls-14 {
        fill: url(#_Áåçûìÿííûé_ãðàäèåíò_7);
      }

      .cls-15 {
        fill: url(#_Áåçûìÿííûé_ãðàäèåíò_199-2);
      }

      .cls-46 {
        fill: url(#_Áåçûìÿííûé_ãðàäèåíò_3);
      }

      .cls-16 {
        fill: url(#_Áåçûìÿííûé_ãðàäèåíò_6);
      }

      .cls-17 {
        fill: url(#_Áåçûìÿííûé_ãðàäèåíò_187);
      }

      .cls-47 {
        fill: url(#_Áåçûìÿííûé_ãðàäèåíò_3-3);
      }

      .cls-18 {
        fill: url(#_Áåçûìÿííûé_ãðàäèåíò_183-3);
      }

      .cls-19 {
        fill: url(#_Áåçûìÿííûé_ãðàäèåíò_259-3);
      }

      .cls-20 {
        fill: #ef4f63;
      }

      .cls-21 {
        fill: url(#_Áåçûìÿííûé_ãðàäèåíò_259-6);
      }

      .cls-22 {
        fill: url(#_Áåçûìÿííûé_ãðàäèåíò_5-4);
      }

      .cls-23 {
        fill: url(#_Áåçûìÿííûé_ãðàäèåíò_5-3);
      }

      .cls-24 {
        fill: url(#_Áåçûìÿííûé_ãðàäèåíò_6-2);
      }

      .cls-26 {
        fill: url(#_Áåçûìÿííûé_ãðàäèåíò_5-5);
      }

      .cls-27 {
        fill: #a5345f;
      }

      .cls-28 {
        fill: url(#_Áåçûìÿííûé_ãðàäèåíò_259-8);
      }

      .cls-29 {
        fill: url(#_Áåçûìÿííûé_ãðàäèåíò_259-5);
      }

      .cls-49 {
        opacity: .36;
      }

      .cls-30 {
        fill: url(#_Áåçûìÿííûé_ãðàäèåíò_259-4);
      }

      .cls-31 {
        fill: url(#_Áåçûìÿííûé_ãðàäèåíò_246);
      }

      .cls-48 {
        fill: url(#_Áåçûìÿííûé_ãðàäèåíò_3-2);
      }

      .cls-34 {
        fill: #6f2561;
      }

      .cls-35 {
        fill: url(#_Áåçûìÿííûé_ãðàäèåíò_136-2);
      }

      .cls-36 {
        fill: url(#_Áåçûìÿííûé_ãðàäèåíò_269);
      }

      .cls-37 {
        fill: url(#_Áåçûìÿííûé_ãðàäèåíò_5);
      }

      .cls-38 {
        fill: url(#_Áåçûìÿííûé_ãðàäèåíò_136);
      }
    </style>
    <linearGradient id="linear-gradient" x1="3551.27" y1="240.24" x2="3551.27" y2="-72.94" gradientTransform="translate(-2614.29 -1782.82) rotate(38.21)" gradientUnits="userSpaceOnUse">
      <stop offset="0" stop-color="#1d0e3d" stop-opacity="0"/>
      <stop offset="1" stop-color="#126d90"/>
    </linearGradient>
    <linearGradient id="linear-gradient-2" x1="3530.35" y1="243.74" x2="3530.35" y2="-74.61" xlink:href="#linear-gradient"/>
    <linearGradient id="linear-gradient-3" x1="3558.71" y1="244.89" x2="3558.71" y2="-74.61" xlink:href="#linear-gradient"/>
    <linearGradient id="linear-gradient-4" x1="3578.31" y1="245.59" x2="3578.31" y2="-71.95" xlink:href="#linear-gradient"/>
    <linearGradient id="_Áåçûìÿííûé_ãðàäèåíò_269" data-name="Áåçûìÿííûé ãðàäèåíò 269" x1="3635.89" y1="-43.92" x2="3635.89" y2="-170.08" gradientTransform="translate(-2614.29 -1782.82) rotate(38.21)" gradientUnits="userSpaceOnUse">
      <stop offset="0" stop-color="#a33541"/>
      <stop offset="1" stop-color="#c63734"/>
    </linearGradient>
    <linearGradient id="_Áåçûìÿííûé_ãðàäèåíò_269-2" data-name="Áåçûìÿííûé ãðàäèåíò 269" x1="3464.79" y1="-43.93" x2="3464.79" y2="-170.09" xlink:href="#_Áåçûìÿííûé_ãðàäèåíò_269"/>
    <radialGradient id="_Áåçûìÿííûé_ãðàäèåíò_229" data-name="Áåçûìÿííûé ãðàäèåíò 229" cx="3680.03" cy="-7887.77" fx="3680.03" fy="-7887.77" r="112.74" gradientTransform="translate(-14382.9 11477.81) rotate(38.22) scale(1.25 2.29)" gradientUnits="userSpaceOnUse">
      <stop offset="0" stop-color="#f2b8b2"/>
      <stop offset=".77" stop-color="#896fb0"/>
      <stop offset=".96" stop-color="#ae94c5"/>
    </radialGradient>
    <radialGradient id="_Áåçûìÿííûé_ãðàäèåíò_187" data-name="Áåçûìÿííûé ãðàäèåíò 187" cx="3551.46" cy="832.78" fx="3551.46" fy="832.78" r="38.03" gradientTransform="translate(-1832.14 -2777.3) rotate(38.21) scale(1 .91)" gradientUnits="userSpaceOnUse">
      <stop offset=".02" stop-color="#aa5e75"/>
      <stop offset=".26" stop-color="#9d577a"/>
      <stop offset=".68" stop-color="#7d4788"/>
      <stop offset=".99" stop-color="#623a95"/>
    </radialGradient>
    <linearGradient id="_Áåçûìÿííûé_ãðàäèåíò_136" data-name="Áåçûìÿííûé ãðàäèåíò 136" x1="3549.75" y1="-508.46" x2="3549.75" y2="-524.21" gradientTransform="translate(-2614.29 -1782.82) rotate(38.21)" gradientUnits="userSpaceOnUse">
      <stop offset="0" stop-color="#f6eb21"/>
      <stop offset="1" stop-color="#f37421"/>
    </linearGradient>
    <radialGradient id="_Áåçûìÿííûé_ãðàäèåíò_183" data-name="Áåçûìÿííûé ãðàäèåíò 183" cx="3550.21" cy="-6363.68" fx="3550.21" fy="-6363.68" r="67.19" gradientTransform="translate(-9745.47 7272.93) rotate(38.21) scale(1 1.84)" gradientUnits="userSpaceOnUse">
      <stop offset=".02" stop-color="#8780bb"/>
      <stop offset=".3" stop-color="#8173b4"/>
      <stop offset=".8" stop-color="#7453a2"/>
      <stop offset=".99" stop-color="#6e459a"/>
    </radialGradient>
    <radialGradient id="_Áåçûìÿííûé_ãðàäèåíò_183-2" data-name="Áåçûìÿííûé ãðàäèåíò 183" cx="3549.97" cy="-369.06" fx="3549.97" fy="-369.06" r="71.43" gradientTransform="translate(-2614.29 -1782.82) rotate(38.21)" xlink:href="#_Áåçûìÿííûé_ãðàäèåíò_183"/>
    <radialGradient id="_Áåçûìÿííûé_ãðàäèåíò_6" data-name="Áåçûìÿííûé ãðàäèåíò 6" cx="3596.59" cy="-6504.34" fx="3596.59" fy="-6504.34" r="80.94" gradientTransform="translate(-10054.35 7029.84) rotate(38.22) scale(1.1 1.84)" gradientUnits="userSpaceOnUse">
      <stop offset=".02" stop-color="#725fa8"/>
      <stop offset=".42" stop-color="#6c52a1"/>
      <stop offset=".99" stop-color="#623a95"/>
    </radialGradient>
    <linearGradient id="_Áåçûìÿííûé_ãðàäèåíò_7" data-name="Áåçûìÿííûé ãðàäèåíò 7" x1="3550.54" y1="-324.62" x2="3550.54" y2="-434.82" gradientTransform="translate(-2614.29 -1782.82) rotate(38.21)" gradientUnits="userSpaceOnUse">
      <stop offset="0" stop-color="#f6eb31"/>
      <stop offset="1" stop-color="#f37c5b"/>
    </linearGradient>
    <radialGradient id="_Áåçûìÿííûé_ãðàäèåíò_6-2" data-name="Áåçûìÿííûé ãðàäèåíò 6" cx="3551.37" cy="-6307.41" fx="3551.37" fy="-6307.41" r="26.39" gradientTransform="translate(-9745.47 7272.93) rotate(38.21) scale(1 1.84)" xlink:href="#_Áåçûìÿííûé_ãðàäèåíò_6"/>
    <radialGradient id="_Áåçûìÿííûé_ãðàäèåíò_183-3" data-name="Áåçûìÿííûé ãðàäèåíò 183" cx="3550.57" cy="-461.71" fx="3550.57" fy="-461.71" r="48.63" gradientTransform="translate(-2614.29 -1782.82) rotate(38.21)" xlink:href="#_Áåçûìÿííûé_ãðàäèåíò_183"/>
    <linearGradient id="_Áåçûìÿííûé_ãðàäèåíò_5" data-name="Áåçûìÿííûé ãðàäèåíò 5" x1="3546.84" y1="-227.4" x2="3546.84" y2="-234.05" gradientTransform="translate(-2614.29 -1782.82) rotate(38.21)" gradientUnits="userSpaceOnUse">
      <stop offset="0" stop-color="#95c3e8"/>
      <stop offset=".32" stop-color="#5c4e86"/>
    </linearGradient>
    <radialGradient id="_Áåçûìÿííûé_ãðàäèåíò_199" data-name="Áåçûìÿííûé ãðàäèåíò 199" cx="3547.31" cy="-232.01" fx="3547.31" fy="-232.01" r="2.62" gradientTransform="translate(-2614.29 -1782.82) rotate(38.21)" gradientUnits="userSpaceOnUse">
      <stop offset=".02" stop-color="#8780bb"/>
      <stop offset=".3" stop-color="#8173b4"/>
      <stop offset=".8" stop-color="#7453a2"/>
      <stop offset="1" stop-color="#6e459a"/>
    </radialGradient>
    <linearGradient id="_Áåçûìÿííûé_ãðàäèåíò_5-2" data-name="Áåçûìÿííûé ãðàäèåíò 5" x1="3546.84" y1="-243.8" x2="3546.84" y2="-250.45" xlink:href="#_Áåçûìÿííûé_ãðàäèåíò_5"/>
    <radialGradient id="_Áåçûìÿííûé_ãðàäèåíò_199-2" data-name="Áåçûìÿííûé ãðàäèåíò 199" cx="3547.31" cy="-248.42" fx="3547.31" fy="-248.42" r="2.62" xlink:href="#_Áåçûìÿííûé_ãðàäèåíò_199"/>
    <radialGradient id="_Áåçûìÿííûé_ãðàäèåíò_259" data-name="Áåçûìÿííûé ãðàäèåíò 259" cx="3492.58" cy="-360.22" fx="3492.58" fy="-360.22" r="2.62" gradientTransform="translate(-2614.29 -1782.82) rotate(38.21)" gradientUnits="userSpaceOnUse">
      <stop offset="0" stop-color="#f2b8b2"/>
      <stop offset="1" stop-color="#896fb0"/>
    </radialGradient>
    <radialGradient id="_Áåçûìÿííûé_ãðàäèåíò_259-2" data-name="Áåçûìÿííûé ãðàäèåíò 259" cx="3498.41" cy="-407.28" fx="3498.41" fy="-407.28" r="2.62" xlink:href="#_Áåçûìÿííûé_ãðàäèåíò_259"/>
    <radialGradient id="_Áåçûìÿííûé_ãðàäèåíò_259-3" data-name="Áåçûìÿííûé ãðàäèåíò 259" cx="3523.69" cy="-323.05" fx="3523.69" fy="-323.05" r="2.62" xlink:href="#_Áåçûìÿííûé_ãðàäèåíò_259"/>
    <radialGradient id="_Áåçûìÿííûé_ãðàäèåíò_259-4" data-name="Áåçûìÿííûé ãðàäèåíò 259" cx="3575.18" cy="-319.05" fx="3575.18" fy="-319.05" r="2.62" xlink:href="#_Áåçûìÿííûé_ãðàäèåíò_259"/>
    <radialGradient id="_Áåçûìÿííûé_ãðàäèåíò_259-5" data-name="Áåçûìÿííûé ãðàäèåíò 259" cx="3610.05" cy="-350.08" fx="3610.05" fy="-350.08" r="2.62" xlink:href="#_Áåçûìÿííûé_ãðàäèåíò_259"/>
    <radialGradient id="_Áåçûìÿííûé_ãðàäèåíò_259-6" data-name="Áåçûìÿííûé ãðàäèåíò 259" cx="3604.71" cy="-409" fx="3604.71" fy="-409" r="2.62" xlink:href="#_Áåçûìÿííûé_ãðàäèåíò_259"/>
    <radialGradient id="_Áåçûìÿííûé_ãðàäèåíò_259-7" data-name="Áåçûìÿííûé ãðàäèåíò 259" cx="3578.52" cy="-439.38" fx="3578.52" fy="-439.38" r="2.62" xlink:href="#_Áåçûìÿííûé_ãðàäèåíò_259"/>
    <radialGradient id="_Áåçûìÿííûé_ãðàäèåíò_259-8" data-name="Áåçûìÿííûé ãðàäèåíò 259" cx="3534.4" cy="-444.15" fx="3534.4" fy="-444.15" r="2.62" xlink:href="#_Áåçûìÿííûé_ãðàäèåíò_259"/>
    <linearGradient id="_Áåçûìÿííûé_ãðàäèåíò_246" data-name="Áåçûìÿííûé ãðàäèåíò 246" x1="3575.16" y1="-43.93" x2="3575.16" y2="-184.11" gradientTransform="translate(-2614.29 -1782.82) rotate(38.21)" gradientUnits="userSpaceOnUse">
      <stop offset="0" stop-color="#a33622"/>
      <stop offset="1" stop-color="#c63734"/>
    </linearGradient>
    <linearGradient id="_Áåçûìÿííûé_ãðàäèåíò_136-2" data-name="Áåçûìÿííûé ãðàäèåíò 136" x1="3641.02" y1="-389.53" x2="3649.33" y2="-389.53" xlink:href="#_Áåçûìÿííûé_ãðàäèåíò_136"/>
    <linearGradient id="_Áåçûìÿííûé_ãðàäèåíò_136-3" data-name="Áåçûìÿííûé ãðàäèåíò 136" x1="3453.07" y1="-391.81" x2="3460.87" y2="-391.81" xlink:href="#_Áåçûìÿííûé_ãðàäèåíò_136"/>
    <linearGradient id="_Áåçûìÿííûé_ãðàäèåíò_5-3" data-name="Áåçûìÿííûé ãðàäèåíò 5" x1="3494.88" y1="-180.66" x2="3494.88" y2="-188.35" xlink:href="#_Áåçûìÿííûé_ãðàäèåíò_5"/>
    <linearGradient id="_Áåçûìÿííûé_ãðàäèåíò_5-4" data-name="Áåçûìÿííûé ãðàäèåíò 5" x1="3605.54" y1="-188.64" x2="3605.54" y2="-196.33" xlink:href="#_Áåçûìÿííûé_ãðàäèåíò_5"/>
    <linearGradient id="_Áåçûìÿííûé_ãðàäèåíò_5-5" data-name="Áåçûìÿííûé ãðàäèåíò 5" x1="3552.89" y1="-189.25" x2="3552.89" y2="-196.93" xlink:href="#_Áåçûìÿííûé_ãðàäèåíò_5"/>
    <radialGradient id="_Áåçûìÿííûé_ãðàäèåíò_3" data-name="Áåçûìÿííûé ãðàäèåíò 3" cx="2579.95" cy="-2583.18" fx="2579.95" fy="-2583.18" r="15.19" gradientTransform="translate(-4443.91 2784.82) rotate(17.04) scale(1.47)" gradientUnits="userSpaceOnUse">
      <stop offset="0" stop-color="#3b57a6"/>
      <stop offset=".03" stop-color="#37529c"/>
      <stop offset=".2" stop-color="#26396d"/>
      <stop offset=".37" stop-color="#182445"/>
      <stop offset=".54" stop-color="#0e1427"/>
      <stop offset=".7" stop-color="#060911"/>
      <stop offset=".86" stop-color="#010204"/>
      <stop offset="1" stop-color="#000"/>
    </radialGradient>
    <radialGradient id="_Áåçûìÿííûé_ãðàäèåíò_3-2" data-name="Áåçûìÿííûé ãðàäèåíò 3" cx="2611.27" cy="-2570.61" fx="2611.27" fy="-2570.61" r="5.86" xlink:href="#_Áåçûìÿííûé_ãðàäèåíò_3"/>
    <radialGradient id="_Áåçûìÿííûé_ãðàäèåíò_3-3" data-name="Áåçûìÿííûé ãðàäèåíò 3" cx="2539.15" cy="-2592.73" fx="2539.15" fy="-2592.73" r="5.86" xlink:href="#_Áåçûìÿííûé_ãðàäèåíò_3"/>
  </defs>
  <g class="cls-50">
    <g id="Layer_1" data-name="Layer 1">
      <g>
        <g>
          <path class="cls-44" d="m187.94,334.23L.46,581.6l64.73,36.12,184.96-233.47s-41.02-42.04-62.22-50.02Z"/>
          <polygon class="cls-43" points="1.89 587.17 194.73 335.96 215.55 350.22 21.09 597.18 1.89 587.17"/>
          <polygon class="cls-45" points="226.45 358.8 29.35 610.25 31.22 611.73 228.72 362.04 226.45 358.8"/>
          <polygon class="cls-42" points="238.74 371.87 42.3 621.35 50.92 622.6 242.49 376.66 238.74 371.87"/>
        </g>
        <path class="cls-36" d="m334.57,329.94l28.82,15.17s-32.84,49.99-104.22,78.51l-2.38-1.88,57.11-68.6-4.89-4.14,25.57-19.06Z"/>
        <path class="cls-5" d="m219.55,239.59l-22.09-25.13s-40.9,43.65-51.88,119.72l2.38,1.88,53.29-71.6,5.17,3.78,13.12-28.65Z"/>
        <path class="cls-6" d="m491.09,12.71c-32.58-25.65-145.45,12.73-198.85,89.04-53.4,76.31-104.31,210.11-104.31,210.11l41.41,33.28,42.06,32.45s118.12-80.87,179.78-150.68c61.66-69.81,72.27-188.71,39.91-214.19Z"/>
        <path class="cls-10" d="m187.93,311.86s50.83,33.18,83.47,65.72c0,0-50.25-32.09-83.47-65.72Z"/>
        <path class="cls-17" d="m421.29,11.32s57.68,21.72,87.07,74.73c0,0,6.22-54.51-17.26-73.34-21.12-16.94-69.81-1.39-69.81-1.39Z"/>
        <path class="cls-41" d="m507.91,86.3c-26.96-49.77-86.22-74.26-86.81-74.51l.38-.94c.6.24,60.19,24.87,87.32,74.96l-.89.48Z"/>
        <path class="cls-32" d="m478.1,6.66l23.43,20.45s-5.41-18.58-23.43-20.45Z"/>
        <path class="cls-38" d="m482.41,8.16s7.5,3.95,14.01,10.46c0,0,6.46-13.72,2.59-17.42-3.87-3.7-16.6,6.96-16.6,6.96Z"/>
        <path class="cls-13" d="m224.48,225.72s88.6,32.35,129.11,90.55c-30.97,25.05-82.2,61.32-82.2,61.32,0,0-28.37-29.59-83.47-65.72,0,0,14.78-45.44,36.55-86.14Z"/>
        <path class="cls-1" d="m446.79,63.39c-31.21-20.86-79.74-2.3-105.16,27.22-25.42,29.52-12.19,70.19,18.28,92.82,30.46,22.62,71.29,21.55,94.24-14.61,20.75-32.69,27.27-82.28-7.36-105.43Z"/>
        <path class="cls-10" d="m450.62,58.52c-31.21-20.86-79.74-2.3-105.16,27.22-25.42,29.52-12.19,70.19,18.28,92.82,30.46,22.62,71.29,21.55,94.24-14.61,20.75-32.69,27.27-82.28-7.36-105.43Z"/>
        <path class="cls-16" d="m453.29,55.13c-31.21-20.86-79.74-2.3-105.16,27.22-25.42,29.52-12.19,70.19,18.28,92.82,30.46,22.62,71.29,21.55,94.24-14.61,20.75-32.69,27.27-82.28-7.36-105.43Z"/>
        <path class="cls-27" d="m446.68,67.52c-27.61-19.13-62.5-2-82.35,21.04-19.85,23.04-9.38,54.9,14.56,72.68,23.93,17.78,55.93,17.04,73.83-11.2,16.18-25.53,22.82-62.54-6.03-82.52Z"/>
        <path class="cls-14" d="m410.28,172.09h-.03s-.06.01-.06.01c-10.67-.29-21.56-4.27-31.11-11.35-22.78-16.93-33.65-50.25-14.76-72.18,6.36-7.36,14.22-13.8,22.96-18.39,17.21-9.13,37.75-11.02,56.33,1.35,27.46,18.27,21.14,54.25,5.74,78.56-9.89,15.61-24.3,22.38-39.08,22.01Z"/>
        <rect class="cls-41" x="276.06" y="220.33" width="108.06" height="1.01" transform="translate(-47.63 343.54) rotate(-51.78)"/>
        <path class="cls-41" d="m224.29,226.19l.38-.94c98.98,40.12,129.07,90.26,129.36,90.76l-.87.51c-.29-.5-30.25-50.36-128.87-90.33Z"/>
        <path class="cls-41" d="m240.31,192.9l.08-1.01c.38.03,38.05,3.47,84.17,35.91l-.58.83c-45.88-32.27-83.3-35.7-83.67-35.74Z"/>
        <polygon class="cls-10" points="258.27 332.02 285.95 294.45 297.97 299.8 266.13 338.21 258.27 332.02"/>
        <path class="cls-24" d="m194.24,318.04s39,25.05,72.04,56.18l-15.08,14.73-66.21-55.06,9.24-15.85Z"/>
        <path class="cls-25" d="m189.57,326.05s17.49,3,33.49,16.17c16,13.16,31.64,43.32,31.64,43.32l11.59-11.32s-35.75-34.26-72.04-56.18l-4.67,8.01Z"/>
        <path class="cls-39" d="m451.89,94.29s1.77,10.51-1.13,25.48l8.25,1.17s3.89-13.89-1.3-23.97l-5.81-2.68Z"/>
        <polygon class="cls-39" points="366.69 102.44 364.88 114.36 358.03 113.45 360.08 103.91 366.69 102.44"/>
        <path class="cls-18" d="m400.17,18.72s64.95,12.56,106.35,83.6l1.83-16.26s-21.9-43.61-87.07-74.73l-21.12,7.4Z"/>
        <g>
          <path class="cls-37" d="m317.8,232.04c-1.14,1.44-3.23,1.69-4.67.56-1.44-1.14-1.69-3.23-.56-4.67,1.14-1.44,3.23-1.69,4.67-.56,1.44,1.14,1.69,3.23.56,4.67Z"/>
          <path class="cls-9" d="m317.24,231.6c-.89,1.14-2.54,1.33-3.68.44-1.14-.89-1.33-2.54-.44-3.68.89-1.14,2.54-1.33,3.68-.44,1.14.89,1.33,2.54.44,3.68Z"/>
        </g>
        <g>
          <path class="cls-2" d="m327.94,219.15c-1.14,1.44-3.23,1.69-4.67.56-1.44-1.14-1.69-3.23-.56-4.67,1.14-1.44,3.23-1.69,4.67-.56,1.44,1.14,1.69,3.23.56,4.67Z"/>
          <path class="cls-15" d="m327.39,218.71c-.89,1.14-2.54,1.33-3.68.44s-1.33-2.54-.44-3.68c.89-1.14,2.54-1.33,3.68-.44,1.14.89,1.33,2.54.44,3.68Z"/>
        </g>
        <g>
          <path class="cls-10" d="m354.09,97.45c-1.14,1.44-3.23,1.69-4.67.56-1.44-1.14-1.69-3.23-.56-4.67,1.14-1.44,3.23-1.69,4.67-.56,1.44,1.14,1.69,3.23.56,4.67Z"/>
          <path class="cls-12" d="m353.54,97.01c-.89,1.14-2.54,1.33-3.68.44-1.14-.89-1.33-2.54-.44-3.68.89-1.14,2.54-1.33,3.68-.44,1.14.89,1.33,2.54.44,3.68Z"/>
        </g>
        <g>
          <path class="cls-10" d="m387.79,64.08c-1.14,1.44-3.23,1.69-4.67.56-1.44-1.14-1.69-3.23-.56-4.67s3.23-1.69,4.67-.56c1.44,1.14,1.69,3.23.56,4.67Z"/>
          <path class="cls-4" d="m387.23,63.64c-.89,1.14-2.54,1.33-3.68.44-1.14-.89-1.33-2.54-.44-3.68.89-1.14,2.54-1.33,3.68-.44,1.14.89,1.33,2.54.44,3.68Z"/>
        </g>
        <g>
          <path class="cls-10" d="m355.55,145.9c-1.14,1.44-3.23,1.69-4.67.56-1.44-1.14-1.69-3.23-.56-4.67,1.14-1.44,3.23-1.69,4.67-.56s1.69,3.23.56,4.67Z"/>
          <path class="cls-19" d="m354.99,145.46c-.89,1.14-2.54,1.33-3.68.44-1.14-.89-1.33-2.54-.44-3.68.89-1.14,2.54-1.33,3.68-.44,1.14.89,1.33,2.54.44,3.68Z"/>
        </g>
        <g>
          <path class="cls-10" d="m393.53,180.89c-1.14,1.44-3.23,1.69-4.67.56s-1.69-3.23-.56-4.67,3.23-1.69,4.67-.56,1.69,3.23.56,4.67Z"/>
          <path class="cls-30" d="m392.98,180.46c-.89,1.14-2.54,1.33-3.68.44-1.14-.89-1.33-2.54-.44-3.68.89-1.14,2.54-1.33,3.68-.44,1.14.89,1.33,2.54.44,3.68Z"/>
        </g>
        <g>
          <path class="cls-10" d="m440.12,178.08c-1.14,1.44-3.23,1.69-4.67.56-1.44-1.14-1.69-3.23-.56-4.67,1.14-1.44,3.23-1.69,4.67-.56,1.44,1.14,1.69,3.23.56,4.67Z"/>
          <path class="cls-29" d="m439.56,177.64c-.89,1.14-2.54,1.33-3.68.44-1.14-.89-1.33-2.54-.44-3.68.89-1.14,2.54-1.33,3.68-.44,1.14.89,1.33,2.54.44,3.68Z"/>
        </g>
        <g>
          <path class="cls-10" d="m472.38,128.49c-1.14,1.44-3.23,1.69-4.67.56-1.44-1.14-1.69-3.23-.56-4.67,1.14-1.44,3.23-1.69,4.67-.56,1.44,1.14,1.69,3.23.56,4.67Z"/>
          <path class="cls-21" d="m471.82,128.05c-.89,1.14-2.54,1.33-3.68.44-1.14-.89-1.33-2.54-.44-3.68.89-1.14,2.54-1.33,3.68-.44,1.14.89,1.33,2.54.44,3.68Z"/>
        </g>
        <g>
          <path class="cls-10" d="m470.59,88.41c-1.14,1.44-3.23,1.69-4.67.56-1.44-1.14-1.69-3.23-.56-4.67s3.23-1.69,4.67-.56c1.44,1.14,1.69,3.23.56,4.67Z"/>
          <path class="cls-11" d="m470.03,87.97c-.89,1.14-2.54,1.33-3.68.44-1.14-.89-1.33-2.54-.44-3.68.89-1.14,2.54-1.33,3.68-.44,1.14.89,1.33,2.54.44,3.68Z"/>
        </g>
        <g>
          <path class="cls-10" d="m438.87,57.37c-1.14,1.44-3.23,1.69-4.67.56s-1.69-3.23-.56-4.67c1.14-1.44,3.23-1.69,4.67-.56,1.44,1.14,1.69,3.23.56,4.67Z"/>
          <path class="cls-28" d="m438.32,56.94c-.89,1.14-2.54,1.33-3.68.44-1.14-.89-1.33-2.54-.44-3.68.89-1.14,2.54-1.33,3.68-.44,1.14.89,1.33,2.54.44,3.68Z"/>
        </g>
        <polygon class="cls-34" points="147.97 336.06 149.89 337.57 203.22 265.89 201.26 264.46 147.97 336.06"/>
        <polygon class="cls-34" points="313.89 353.14 312.03 351.57 255.49 420.72 256.78 421.74 313.89 353.14"/>
        <polygon class="cls-31" points="307.56 283.3 314.44 288.72 220.84 393.44 216.05 389.67 307.56 283.3"/>
        <polygon class="cls-20" points="307.56 283.3 283.57 303.91 216.05 389.67 307.56 283.3"/>
        <polygon class="cls-25" points="311.55 291.94 271.4 377.58 255.49 363.58 241.51 380.9 235.96 376.52 311.55 291.94"/>
        <path class="cls-39" d="m378.36,35.63s5.29-8.11,13.76-9l3.76,3.27s-8.55,4.58-15.58,7.26l-1.95-1.53Z"/>
        <polygon class="cls-40" points="368.24 297.67 401.22 270.58 403.23 272.16 370.6 299.54 368.24 297.67"/>
        <path class="cls-35" d="m491.97,157.68s14.13,7.05-5.95,14.33l5.95-14.33Z"/>
        <path class="cls-3" d="m351.72,44.6s-13.89-5.54-12.12,8.7l12.12-8.7Z"/>
        <path class="cls-8" d="m200.66,319.94s45.03-121.73,89.78-203.83l-4.26-.9s-72.75,122.73-96.47,197.81l10.95,6.91Z"/>
        <polygon class="cls-33" points="408.18 264.02 427.69 246.67 429.6 248.17 410.08 265.52 408.18 264.02"/>
        <path class="cls-33" d="m255.79,197.12s28.11,7.09,49.43,20.78c0,0-23.22-11.13-49.43-20.78Z"/>
        <path class="cls-33" d="m358.24,187.06l-58.1,74.82s22.55-25.98,58.1-74.82Z"/>
        <path class="cls-33" d="m241.95,234.49s61.01,24.46,101.16,71.19c0,0-28.41-36.37-101.16-71.19Z"/>
        <path class="cls-7" d="m406.9,47.78s4.61,8.04,18.49-1.46c0,0-10.41-.52-18.49,1.46Z"/>
        <path class="cls-33" d="m372.66,179.39s16.88,11.92,49.91,9.44c0,0-24.13,6.96-49.91-9.44Z"/>
        <path class="cls-33" d="m377.71,160.36s8.17,18.75,28.82,12.43c0,0-12.8.8-28.82-12.43Z"/>
        <g class="cls-49">
          <path class="cls-7" d="m349.86,190.06c-1.29-.09-3.53-.56-4.27.93-.34.69-.39,1.48-.66,2.2-.23.63-.54,1.24-.91,1.8-.5.77-.99,2.17-.92,3.13.06.73.81.61,1.38.42.63-.21,1.28-.42,1.72-.93.57-.66,1.13-1.3,1.82-1.83.27-.2.65-.28.92-.5.36-.29.64-.7.91-1.07.59-.8,1.18-2.74,0-4.15Z"/>
          <path class="cls-7" d="m338.06,198.02c.17-.44.46-.68.87-.72,1.23,1.01-.28,3.84-1.84,3.39-1.79-.51-.49-2.51.56-2.99l.4.32Z"/>
          <path class="cls-7" d="m302.45,195.69c.9.2,1.79.19,2.39.93.5.63.71,1.37.75,2.16.05.98-.32,1.89-.68,2.79-.18.44-.27.91-.66,1.21-1.55,1.17-4.06.88-5.73.25-.97-.37-1.9-.64-2.77-1.22-.59-.39-1.21-.75-1.83-1.09-.52-.29-1.1-.43-1.47-.93-.27-.36-.49-1.01-.6-1.44-.35-1.38-.13-2.81.78-3.88,1.59-1.87,5.09-1.59,7.27-1.14,1.79.37,4.45,1.18,2.56,2.35Z"/>
          <path class="cls-7" d="m310.53,197.83c-.62.4-.91.45-.7,1.1.15.47.61.82,1.04.97.85.3,2.49-.05,2.54-1.13.02-.55-.09-1.64-.47-2.01-.76-.73-2.72-.37-3.21.44l.8.63Z"/>
          <path class="cls-7" d="m320.86,236.39c-.35.23-.53.47-.79.8-.59.75-1.18,1.49-1.76,2.24-1.1,1.41-2.41,2.65-3.53,4.06-.81,1.02-1.43,2.17-2.07,3.3-.33.58-.65,1.21-.93,1.81.15.06.37-.18.52-.25.48-.25.93-.6,1.42-.82,1.12-.48,2.27-.99,3.36-1.56.2-.1.38-.27.6-.33.28-.07.62-.09.9-.14.51-.09,1.03-.24,1.49-.49,1.06-.59,1.91-1.65,2.6-2.63.24-.33.39-.71.64-1.04.27-.36.52-.69.75-1.08.47-.82.66-1.79.79-2.72.15-1.09.69-2.78-.11-3.75-.39-.47-.97-.09-1.34.23-.47.41-.86.9-1.3,1.33-.59.57-1.42,1.16-1.24,1.04Z"/>
          <path class="cls-7" d="m327.08,230.55c.49-.19,1.29-.62,1.74-.08.44.53-.14,1.29-.52,1.65-.91.86-1.36-1.14-.77-1.71l-.44.14Z"/>
          <path class="cls-7" d="m331.8,244.2c-.48.24-.91.46-1.16.95-.35.7-.08,1.3.48,1.78.87.74,1.66.99,2.56.22.56-.48.85-1.64.74-2.35-.05-.34-.23-.64-.49-.88-.52-.47-1.12-.25-1.72-.04l-.42.32Z"/>
          <path class="cls-7" d="m329.82,288.05c1.84.44,3.68.91,5.37,1.77,1.49.76,2.69,1.89,4.08,2.79,1.96,1.27,4.13,1.98,6.24,2.95,1.86.85,3.54,1.81,4.82,3.45.97,1.24,1.63,3.01,1.31,4.59-.2.97-.62,1.91-1.12,2.76-.24.41-.48.77-.73,1.16-.15.26-.19.48-.41.73-.29.33-.42.24-.75-.02-.62-.5-1.02-.91-1.31-1.68-.44-1.15-1.29-2.2-2.1-3.11-.8-.91-1.53-1.85-2.39-2.71-.85-.84-1.69-1.69-2.52-2.55-.71-.74-1.4-1.5-2.11-2.25-.7-.73-1.51-1.37-2.25-2.05-.62-.57-1.34-1.03-1.95-1.61-.39-.37-.75-.72-1.17-1.05-.34-.26-.61-.52-.9-.84-.27-.3-.62-.49-.92-.75-.2-.18-.77-.89-1.18-1.59Z"/>
          <path class="cls-7" d="m342.95,288.95c-.34,0-.72-.05-.98.16-.1.09-.24.31-.3.43-.33.7.63,1.51,1.11,1.9,1.34,1.06,3.21,1.86,4.95,1.67,1.11-.13,2.54-.77,3.07-1.81.72-1.45-.07-3.22-1.01-4.38-.89-1.09-2.36-2.35-3.87-2.15-.53.07-1.1.24-1.47.64-.29.31-.42.73-.67,1.06-.34.45-.88.66-1,1.26-.09.43.01.84.19,1.22Z"/>
          <path class="cls-7" d="m350.91,295.38c.22-.43.28-.45.72-.57.4-.11.7-.05.97.29.41.53.25,1.38-.34,1.68-.38.19-.92.04-1.27-.18-.42-.27-.53-.81-.36-1.27l.28.06Z"/>
          <path class="cls-7" d="m384.2,274.39c-.75-.18-1.01-.25-1.69,0-.34.13-.55.25-.65.63-.24.91.08,2.27.58,3.05.36.57,1.04,1.04,1.71,1.14.59.09,1.31-.14,1.89-.24.54-.1,1.06-.24,1.58-.39.91-.27,1.78-.68,1.89-1.73.1-.93-.35-2.08-1.14-2.61-.64-.43-1.16-.52-1.88-.65-.69-.12-1.25-.3-2.29.79Z"/>
          <path class="cls-7" d="m379.12,275.27c.38.35.68.76.91,1.22-.16.17,0,.45-.25.6-.35.22-.78-.27-1-.46-.28-.24-.49-.62-.53-.99-.01-.14-.08-.74.21-.56l.66.19Z"/>
          <path class="cls-7" d="m324.33,270.22c-.62.26-1.3.55-1.25,1.4.04.79.91,1.31,1.59,1.47.36.09.77.2,1.05-.08.29-.28.5-.67.76-.98.61-.74,1.8-.68,1.68-1.94-.05-.52-.46-1.23-.93-1.47-.88-.45-1.89.05-2.67.48l-.23,1.12Z"/>
          <path class="cls-7" d="m241.54,250.11c-1.04-.48-2.12-.66-3.22-.54-.08.12-.16.24-.24.36-.67.43-1.18.99-1.33,1.8-.45,2.42,1.5,3.62,3.13,4.89,1.74,1.36,3.81,3.3,4.9.26.5-1.39,1.41-3.58.93-5.07-.25-.79-.66-.84-1.34-1.05-.85-.28-1.92-.72-2.83-.63h0Z"/>
          <path class="cls-7" d="m259.29,268.49c.64-.26,1.75-.86,2.49-.4.6.37.54.85.71,1.45.39,1.32.57,2.81-1.19,3.25-.78.19-1.97-.21-2.54-.84-.5-.55-.91-2.02-.19-2.56l.71-.9Z"/>
          <path class="cls-7" d="m462.1,182.08c-1.68.81-1.8.85-2.48,2.47-.51,1.22-1.21,2.51-1.07,3.88.18,1.82,1.74,2.64,2.79,3.9.82.98,1.33,1.49,2.71,1.51,1.32.01,2.94-.36,4.18-.87,4.03-1.66,7.39-6.08,8.44-10.21.69-2.71,1.17-6.06-.61-8.49-1.49-2.04-4.02-3.33-6.53-2.93-2.53.4-4.58,2.29-5.68,4.54-.23.56-.46,1.11-.7,1.66-.39.65-.84,1.25-1.35,1.8-.44.67-.54,1.52.31,2.73Z"/>
          <path class="cls-7" d="m454.45,184.36c.47,2,.42,1.68-.39,3.11-.36.63-.23.93-.77,1.36-.66.53-2.11.43-2.74-.16-.5-.47-.53-2.13-.42-2.71.16-.89.55-1.13,1.33-1.5l3-.08Z"/>
          <path class="cls-7" d="m327.79,84.14c-1.13.89-2.52,1.9-1.89,3.6.43,1.16,2.1,1.64,3.26,1.66,1.66.02,4.34-1.1,5.53-2.27,1.28-1.25.77-4.06-.38-5.23-2.35-2.37-6.99.66-8.68,2.49l2.15-.26Z"/>
          <path class="cls-7" d="m316.49,94.77c.1-.42.17-1.81.58-2.11.19-.14.43,0,.63-.08.73-.27,1.47-.45,2.16-.08,1.45.79,2.12,2.07,1.88,3.71-.16,1.07-.75,1.84-1.85,1.96-1.21.14-2.92-.71-2.96-2.09l-.43-1.31Z"/>
          <path class="cls-7" d="m321.81,325.52c-2.34,1.15-3.84,3.28-5.04,5.61-.76,1.48-1.91,3.31-.99,4.96,2.17,3.87,10.09-1.09,12.44-2.82,1.94-1.42,3.86-3.46,5.01-5.61.71-1.32,1.62-4.34.95-5.82-.86-1.91-3.23-2.27-5.03-1.82-4.13,1.04-6.29,4.86-9.62,7.13l2.26-1.64Z"/>
          <path class="cls-7" d="m320.5,323.76c-.38-.21-1.94-1.25-2.71-1.31-.55-.04-1.39-.13-1.83.22-.6.48-.65,1.4-.55,2.09.07.45.38,1.11.87,1.25.38.11.95-.11,1.32-.21.68-.18,1.31-.51,1.95-.85.29-.16.63-.27.9-.5.41-.36.24-.73.4-1.15l-.36.45Z"/>
          <path class="cls-7" d="m305.4,339.22c.23.45.46.91.69,1.36-.41.37-.64.99-1.27.94-.43-.04-1.2-.62-1.43-.99-.33-.55-.35-1.15.05-1.62.47-.56,1.17-.39,1.77-.07l.18.39Z"/>
          <path class="cls-7" d="m237.45,322.58c-.59.4-.96.75-.88,1.52.13,1.11.93,1.95,2.03,1.96,1.53,0,3.87-.82,4.6-2.31.46-.94.16-2.68-1.03-2.84-.59-.08-1.42-.19-2.01-.1-1.02.16-1.93.87-2.6,1.61l-.12.15Z"/>
          <path class="cls-7" d="m486.96,87.88c-.65.06-.94.02-1.41.43-.53.47-1.01.96-1.09,1.71-.15,1.47.89,3.36,1.8,4.49.83,1.03,1.73,1.52,3.04,1.58,1.48.07,2.74-.32,3.82-1.35,1.12-1.08,1.57-2.14,1.12-3.7-.37-1.25-.98-2.8-1.88-3.76-.84-.9-1.69-1.15-2.9-1.11-1.07.04-2.68.35-2.5,1.71Z"/>
          <path class="cls-7" d="m492.43,98.29c.27-.3.49-.72.91-.53.53.24,1,1.28,1.05,1.81.04.43-.17,1.23-.5,1.54-.27.25-.73.27-1.09.26-.61-.02-1.1-.33-1.29-.87-.14-.37-.52-1.24-.1-1.55l1.01-.67Z"/>
          <path class="cls-7" d="m498.11,38.06c-.47.56-.68.87-.77,1.59-.13,1.06.04,2.2.39,3.21.45,1.3,1.24,2.67,2.43,3.44.84.55,2.29.25,2.99-.39.84-.77,1.52-2.33,1.54-3.47.06-2.21-.91-4.81-2.82-6.07-2.2-1.45-4.69,1.56-3.76,1.69Z"/>
          <path class="cls-7" d="m501.3,52.3c-.06-.39-.02-.76.12-1.11.41.1.77-.16,1.18-.02.41.13.74.53.9.9.24.55.22,1.14-.13,1.63-.39.55-.68.5-1.29.39-.44-.08-.56-.07-.76-.52-.1-.23-.23-.7-.27-.96l.24-.3Z"/>
        </g>
        <g>
          <path class="cls-23" d="m247.95,235.87c-1.31,1.67-3.36,2.25-4.56,1.3-1.21-.95-1.12-3.07.19-4.74,1.31-1.67,3.36-2.25,4.56-1.3,1.21.95,1.12,3.07-.19,4.74Z"/>
          <path class="cls-7" d="m247.48,235.5c-1.03,1.31-2.64,1.77-3.59,1.02s-.88-2.42.15-3.73c1.03-1.31,2.64-1.77,3.59-1.02.95.75.88,2.42-.15,3.73Z"/>
        </g>
        <g>
          <path class="cls-22" d="m340.06,298.23c-1.31,1.67-3.46,2.17-4.79,1.12-1.33-1.05-1.35-3.25-.03-4.92,1.31-1.67,3.46-2.17,4.79-1.12,1.33,1.05,1.35,3.25.03,4.92Z"/>
          <path class="cls-7" d="m339.55,297.83c-1.03,1.31-2.72,1.71-3.77.88-1.05-.83-1.06-2.56-.03-3.87,1.03-1.31,2.72-1.71,3.77-.88,1.05.83,1.06,2.56.03,3.87Z"/>
        </g>
        <g>
          <path class="cls-26" d="m299.68,265.66c-1.31,1.67-3.73,1.95-5.4.64s-1.95-3.73-.64-5.4c1.31-1.67,3.73-1.96,5.4-.64,1.67,1.31,1.95,3.73.64,5.4Z"/>
          <path class="cls-7" d="m299.04,265.16c-1.03,1.31-2.94,1.54-4.25.51-1.31-1.03-1.54-2.94-.51-4.25,1.03-1.31,2.94-1.54,4.25-.51,1.31,1.03,1.54,2.94.51,4.25Z"/>
        </g>
        <path class="cls-46" d="m318.99,270.59c-3.62,11.8-16.12,18.44-27.92,14.82-11.8-3.62-18.44-16.12-14.82-27.92,3.62-11.8,16.12-18.44,27.92-14.82,11.8,3.62,18.44,16.12,14.82,27.92Z"/>
        <path class="cls-48" d="m344.49,297.75c-1.39,4.55-6.21,7.11-10.76,5.71-4.55-1.39-7.11-6.21-5.71-10.76,1.39-4.55,6.21-7.11,10.76-5.71,4.55,1.39,7.11,6.21,5.71,10.76Z"/>
        <path class="cls-47" d="m252.6,235.56c-1.39,4.55-6.21,7.11-10.76,5.71-4.55-1.39-7.11-6.21-5.71-10.76,1.39-4.55,6.21-7.11,10.76-5.71,4.55,1.39,7.11,6.21,5.71,10.76Z"/>
      </g>
    </g>
  </g>
</svg>