<?xml version="1.0" encoding="UTF-8"?>
<svg xmlns="http://www.w3.org/2000/svg" xmlns:xlink="http://www.w3.org/1999/xlink" viewBox="0 0 2571 1283">
  <defs>
    <style>
      .cls-1 {
        isolation: isolate;
      }

      .cls-2 {
        fill: #ffce42;
      }

      .cls-2, .cls-3, .cls-4, .cls-5, .cls-6 {
        fill-rule: evenodd;
      }

      .cls-7 {
        mix-blend-mode: soft-light;
      }

      .cls-3 {
        fill: #f48045;
      }

      .cls-4 {
        fill: #c2aeb6;
      }

      .cls-8 {
        opacity: .5;
      }

      .cls-8, .cls-9 {
        mix-blend-mode: multiply;
      }

      .cls-5 {
        fill: #f8f193;
      }

      .cls-6 {
        fill: url(#_Áåçûìÿííûé_ãðàäèåíò_236);
      }

      .cls-9 {
        opacity: .65;
      }
    </style>
    <radialGradient id="_Áåçûìÿííûé_ãðàäèåíò_236" data-name="Áåçûìÿííûé ãðàäèåíò 236" cx="5660.3" cy="-116.71" fx="5660.3" fy="-116.71" r="634.29" gradientTransform="translate(8184.12) rotate(-180) scale(1 -1)" gradientUnits="userSpaceOnUse">
      <stop offset="0" stop-color="#f05a38"/>
      <stop offset=".7" stop-color="#b61f60"/>
      <stop offset=".95" stop-color="#5e2a76"/>
      <stop offset="1" stop-color="#6e65ab"/>
    </radialGradient>
  </defs>
  <g class="cls-1">
    <g id="Layer_1" data-name="Layer 1">
      <g>
        <path class="cls-6" d="m2572.95-.48h-607.57c-.14,1.81-.29,3.61-.4,5.42-2.09,32.12-.79,63.74,3.6,94.57,1.15,8,2.52,15.99,4.11,23.91,2.3,11.81,5.11,23.48,8.43,34.93,8.43,30.25,19.95,59.35,34.29,86.87,5.11,10.01,10.59,19.74,16.49,29.32v.07c16.21,26.43,35.01,51.14,56.11,73.83,24.49,26.43,52.08,50.06,82.26,70.23,15.99,10.66,32.7,20.38,50.13,28.96,7.56,3.82,15.2,7.35,22.98,10.73,42.5,18.3,88.52,30.4,136.93,35.01,67.86,6.4,132.98-1.83,192.65-22.02V-.48Z"/>
        <g class="cls-8">
          <path class="cls-4" d="m1970.45-.48c-1.89,1.76-3.74,3.55-5.47,5.42-2.09,32.12-.79,63.74,3.6,94.57.29-.36.5-.65.79-1.01,11.67-14.55,26.94-26.43,37.81-41.63,6.92-9.65,14.12-18.87,24.92-24.49,7.27-3.82,14.91-8.21,22.62-11.09,6.92-2.59,14.33-2.95,21.32-5.19,9.44-2.95,16.42-7.56,26.51-8.36,9.29-.79,18.01-2.88,27.37-2.74,5.69.07,24.78-3.67,25.5,5.55.14,2.59-5.55,10.08-7.64,11.52-9.22,6.7-22.33,11.52-32.7,15.7-19.38,7.85-39.33,13.54-58.34,22.47-19.09,9-38.1,21.68-54.45,34.86-11.09,8.86-20.67,17.79-29.6,28.31,2.3,11.81,5.11,23.48,8.43,34.93,5.76-3.67,11.96-7.06,17.21-11.38,6.27-5.11,11.88-10.8,17.86-16.28,17.07-15.7,33.35-31.33,53.01-43.87,7.49-4.83,15.34-9.36,23.19-13.69,8.14-4.47,17.14-6.84,25.28-11.38,14.41-8.07,29.53-15.27,44.44-22.4,18.44-8.79,41.06-13.18,60.86-17.93,32.27-7.71,66.19-15.13,99.18-18.51,9.32-.96,18.64-2.09,27.94-3.4h-379.65Z"/>
          <path class="cls-4" d="m2572.95,42.92c-.69.08-1.37.2-2.06.26-9.44.79-18.22,4.03-27.59,5.33-11.16,1.51-22.19,2.45-33.42,2.88-7.42.22-14.33,2.59-21.68,2.88-7.56.29-14.91-.65-22.47.5-22.04,3.39-44.66,4.47-66.99,6.92-49.84,5.4-100.12,11.6-148.16,26.51-10.73,3.31-20.02,8.72-30.32,13.11-12.32,5.19-24.71,9-36.37,15.63-9.44,5.47-19.74,10.3-28.88,16.28-10.88,7.06-19.95,16.42-29.96,24.56-12.53,10.16-27.59,17.29-40.77,26.72-8,5.62-15.77,11.02-23.34,17.14-9,7.2-20.82,12.89-28.23,21.75-5.69,6.84-11.96,14.19-17.29,21.82,5.11,10.01,10.59,19.74,16.49,29.32,4.68-6.19,10.08-10.95,16.71-17.14,6.7-6.12,11.45-13.33,17.07-20.46,4.9-6.27,11.09-10.52,17.21-15.34,10.66-8.5,23.91-16.06,36.66-21.1,17.43-6.91,32.99-14.55,49.27-24.13,20.17-11.81,38.03-27.37,57.91-39.69,17.86-11.16,37.81-21.97,58.13-28.09,9.8-2.95,19.38-4.54,29.1-8.07,11.67-4.25,24.85-4.61,37.09-5.4,11.31-.72,22.33-2.81,33.57-4.18,12.68-1.51,25.5-1.58,38.25-3.24,24.2-3.17,48.47-5.69,72.75-8.28,25.83-2.7,51.38-3.36,77.33-3.38v-33.11Z"/>
          <path class="cls-4" d="m2572.95,314.54c-4.58.96-9.19,1.72-13.88,1.7-7.27-.07-14.55.14-21.82-.07-3.96-.07-6.91-.29-10.95-1.3-5.33-1.3-6.34-1.66-9.51-5.47-8.64-10.37-2.95-25.43,10.88-26,5.83-.22,13.54-1.01,19.16.29,8.32,1.94,17.36,4.59,26.12,5.24v-144.45c-5.66.5-10.82,1.81-16.54,3.07-35.65,7.92-72.75,16.71-108.62,26.72-42.78,11.96-87.51,15.49-129.94,28.67-18.73,5.76-38.1,10.44-56.4,17.57-16.93,6.63-32.41,17.72-48.91,25.35-15.13,6.99-31.62,16.42-45.23,26.07-11.02,7.78-22.69,14.26-33.49,22.47-7.99,6.19-13.69,14.12-21.32,20.46-7.92,6.63-13.47,13.61-18.08,22.55-1.8,3.6-4.11,7.27-6.41,11.02,24.49,26.43,52.08,50.06,82.26,70.23,20.53-12.32,45.52-18.15,65.98-30.76,18.29-11.31,39.11-18.58,58.77-27.37,20.6-9.15,40.98-17.79,62.3-25.28,14.26-4.97,28.52-8.57,43.51-10.59,7.06-1.01,14.69-.29,21.97-.29,8.64,0,18.51-1.3,27.01.22,20.53,3.82,39.98,5.26,61.15,5.26,15.77,0,31.48-.14,47.18,0,5.01.06,9.92-.34,14.81-.84v-14.47Z"/>
          <path class="cls-4" d="m2572.95,401.83c-2.33-.36-4.66-.71-6.96-1.1-38.61-6.63-77.14-9-115.96-13.32-22.26-2.45-45.59-4.54-68.07-2.74-24.63,2.02-50.78,4.47-74.26,12.75-5.98,2.09-12.46,4.25-18.22,6.77-6.12,2.66-10.8,7.64-16.93,10.44-5.33,2.45-11.31,4.18-16.78,6.34-7.71,3.1-9.8,5.11-15.99,10.01-6.84,5.4-13.76,9.94-19.38,16.64,7.56,3.82,15.2,7.35,22.98,10.73,10.8-3.02,22.4-4.11,32.77-7.13,11.81-3.46,22.4-10.23,34.36-13.76,10.52-3.1,21.18-4.61,31.55-8,26-8.43,54.24-13.47,81.32-17,20.67-2.81,38.82-4.39,59.35-1.08,17.86,2.88,34.57,5.55,51.93,10.66,13.05,3.84,25.88,6.18,38.29,10.37v-30.59Z"/>
        </g>
        <g class="cls-9">
          <path class="cls-4" d="m2572.95,188.63c-4.04-.04-8.06.07-11.98.35-13.61.95-28.22,3.17-41.07,7.98-9.93,3.72-21.21,9.27-26.23,19.17-3.04,5.99-2.3,12.63-.11,18.69,2.97,8.24,9.2,11.9,17.46,14.1,10.98,2.93,22.46,3.48,33.77,2.51,4.1-.35,8.17-1.1,12.27-1.46,5.27-.46,10.6-.21,15.89-.19v-61.16Z"/>
          <path class="cls-4" d="m2567.29,171.55c-2.88-1.4-5.51-3.2-8.77-2.78-2.5.32-4.83,1.26-7.01,2.54-1.44.85-2.94,2.06-3.16,3.93-.21,1.8.25,1.89,2.05,2.69,3.36,1.49,8.73,1.5,12.27.48,1.15-.33,3.32-.95,4.11-1.92.68-.83,1.15-3.02-.42-3.12l.91-1.82Z"/>
          <path class="cls-4" d="m2470.85,198.84c-.61,1.74-1.53,3.27-2.78,4.59-.46,0-.91.03-1.36.09-1.56.54-3.38.93-5.02,1.27-4.45.9-8.98.2-13.47.36-7.91.28-22.82,11.26-25.21-1.64-2.13-11.47,13.35-15.11,21.51-17.22,4.03-1.04,7.92-1.68,11.92-.25,2.53.91,5.51,1.47,7.85,2.86,2.56,1.53,6.65,5.18,6.58,9.94Z"/>
          <path class="cls-4" d="m2236.11,346.23c-4.58-1.28-8.73-3.03-13.46-3.47-7.69-.71-16.04-.33-23.52,1.73-8.95,2.46-18.99,8.52-22.99,17.32-1.64,3.61-3.51,9.41-.22,12.67,4.76,4.72,15.11,3.82,21.09,3.64,9.03-.28,17.26-2.56,25.63-5.71,5.34-2,10.77-3.84,16.08-5.91,3.86-1.51,7.28-3.27,10.03-6.44,2.19-2.53,3.99-6.02,2.76-9.5-.86-2.42-4.71-4.5-6.91-5.35-3.11-1.2-6.33-.4-8.48,1.02Z"/>
          <path class="cls-4" d="m2424.45,392.64c-3.54.48-7.02,1.19-10.46,2.11.85,1.27-.69,1.92-.34,3.32.45,1.84,3.57,3.09,5.08,3.68,3.12,1.23,6.1.89,9.48.89,4.43,0,9.32.64,13.64-.64,3.96-1.17,6.24-3.67,2.03-6.15-5.97-3.52-12.8-3.22-19.42-3.22h0Z"/>
          <path class="cls-4" d="m2186.98,144.25c.05,1.86.31,3.56-.52,5.21-.74,1.46-2.12,2.97-3.11,4.26-3.54,4.61-8.05,9.07-12.44,12.89-2.78,2.42-6.17,4.09-9.37,5.87-3.32,1.84-6.66,4.16-10.29,5.34-4.68,1.52-10.29,3.03-15.23,2.9-6.09-.17-8.9-4.62-9.02-10.57-.09-4.49,3.64-8.26,6.26-11.58,3.44-4.35,7.88-7.86,12.03-11.53,8.85-7.85,18.66-14.59,28.06-21.74,2.86-2.17,11.92-8.31,15.49-4.32,1.5,1.68,2.12,5.71,2.51,7.82.49,2.65.65,5.51,1.02,8.19.77,5.5-1.21,12.81-5.39,7.28Z"/>
          <path class="cls-4" d="m2029.67-.48c1.21,1.77,3,3.18,5.39,4.05,4.12,1.5,10.2,1.67,14.54,1.57,4.48-.1,8.92-.8,13.4-.98,8.87-.37,18.54-1.71,27.07-4.19.5-.14.99-.31,1.48-.46h-61.89Z"/>
          <path class="cls-4" d="m2475.85,228.87c-5.81.53-13.98,3.09-19.36.09-1.69-.94-4.12-2.6-5.33-4.19-2.8-3.67-1.04-6.81,3.17-7.91,6.69-1.74,21.85,2.89,20.16,12.01h1.36Z"/>
          <path class="cls-4" d="m2504.51,316.21c-10.31-13.96-28.99-21.81-46.44-18.99-8.7,1.41-17.1,5.2-25.16,8.65-2.23.96-4.68,1.7-6.38,3.54-.91.99-1.26,2.2-2.37,3.05,1.73,4.65,9.93,9.26,14.71,10.34,4.61,1.03,11.92.94,16.38.14,3.3-.6,6.21-2.41,9.61-2.69,6.47-.54,14.24-.63,20.67.18,3.66.46,6.79,2,10.51.97,2.7-.75,4.63-2.86,7.06-4.12-.61-1.7-2.67-2.72,1.4-1.06Z"/>
          <path class="cls-4" d="m2408.98,306.66c-.55,7.77-2.11,7.25-9.49,6.88-3.65-.18-6.91-2.81-5.59-6.95.8-2.51,3.29-3.18,5.53-4.02,3.84-1.44,6.16-1.81,9.55,1.36v2.73Z"/>
          <path class="cls-4" d="m2385.1,312.12c-1.31-3.02-3.29-4.07-6.56-4.66-2.93-.53-6.18.22-9.09.67-5.52.84-10.95,3.46-16.17,5.32-6.46,2.31-12.88,5.02-19.47,6.91-7.13,2.05-14.38,2.98-21.69,4.03-11.34,1.63-22.73,2.65-34.02,4.61-3.42.6-6.46,1.42-9.73,2.59-2.34.83-4.64.84-6.99,1.49-2.73.75-5.38,1.43-7.15,3.64-1.28,1.6-1.96,3.19-1.35,5.27.56,1.89,2.4,3.43,3.09,5.43,1.02,2.99,1.91,5.83,1.57,9.04-.34,3.15-2.13,5.54-4.26,7.66-2.58,2.57-5.56,5.08-7.57,8.08-1.31,1.95-1.6,3.31,1.42,2.54,3.25-.82,6.6-2.83,9.67-4.42,6.03-3.12,11.75-6.69,17.93-9.58,3.44-1.61,6.98-2.77,10.46-4.27,3.26-1.4,6.52-2.94,9.88-4.11,6.7-2.35,13.21-5.55,19.76-8.32,10.68-4.53,21.33-9.25,32.13-13.49,4.9-1.93,10.22-4.33,14.7-7.16,2.48-1.57,4.67-3.67,7.2-5.15,2.15-1.26,4.66-1.45,7-2.09,1.33-.37,2.33-1.21,3.46-1.97,2.42-1.64,4.83-3.61,7.74-4.23.04-.18.08-.37-1.93,2.18Z"/>
          <path class="cls-4" d="m2478.58,237.74c.89.42,5,1.59,5.49,3.37.38,1.39-.65,2.04-1.75,2.46-1.81.67-4.26.69-6.16.99-3.65.58-7.17,1.3-10.79,2.05-2.98.62-5.86,1.49-8.85,2.06-3.69.71-7.57,1.08-11.21,2-3.3.84-6.34,1.72-9.71,2.24-4.06.63-7.8,2.16-11.93,2.61-8.55.94-17.22,1.57-25.81,2.02-8.77.45-17.47,2.31-25.74,5.27-3.76,1.35-7.57,2.62-11.29,4.09-3.24,1.29-6.04,3.28-9.16,4.81-6.82,3.35-13.35,7.82-20.42,10.59-7.83,3.06-15.91,4.84-24.09,6.62-11.63,2.52-23.33,4.74-34.96,7.3-13.38,2.95-26.77,6.29-40,9.82-5.75,1.53-12.54,3.44-17.81,6.23-4.35,2.31-8.93,4.5-13.15,7.01-3.31,1.97-6.62,3.9-9.97,5.8-3.29,1.86-6.26,4.25-9.53,6.18-2.58,1.53-5.48,2.51-7.58,4.74-2.11,2.26-4.08,4.27-6.43,6.33-1.6,1.39-2.9,3-4.4,4.45-1.33,1.29-2.51,1.86-3.43,3.53-.91,1.66-1.54,2.97-2.15,4.76-.84,2.46-2.92,4.5-4.01,6.87-.32.69-.43,1.58-.76,2.22-.63,1.2-1.82,2.06-2.67,3.09-.85,1.03-1.43,2.19-2.25,3.23-1.21,1.52-2.96,2.49-4.35,3.9-1.84,1.87-3.85,3.35-5.64,5.31-1.85,2.02-2.28,4.14-2.83,6.69-.55.02-1.08.63-1.42.66-.93.1-.57-.02-1.35-.36-1.54-.69-2.86-1.73-4.09-2.88-3.85-3.58-8.11-8.3-10.61-13-1.61-3.03-3.38-6.87-2.91-10.42.31-2.31,1.44-3.5,3.57-4.44,3.4-1.5,7.23-1.9,10.59-3.51,3.88-1.86,7.77-3.76,11.64-5.65,2.42-1.18,4.47-2.76,6.97-3.79,2.8-1.16,4.89-2.26,7.35-4.06,3.88-2.84,7.91-5.41,11.41-8.71,5.25-4.94,11.1-9.51,16.74-14,4.49-3.58,8.78-7.21,13.64-10.29,3.7-2.34,8.35-4.04,12.55-5.27,2.88-.85,5.81-.92,8.75-1.48,3.22-.61,6.32-1.24,9.58-1.57,5.33-.54,10.55-.94,15.88-1.15,3.78-.15,8.36-.91,11.96-2.06,3.14-1.01,6.26-1.59,9.02-3.43,2.21-1.47,4.52-2.7,6.79-4.08,3.19-1.93,6.14-4.39,9.4-6.17,4.22-2.31,8.96-4.7,12.47-8,1.85-1.74,9.75-9.04,5.3-11.29-3.07-1.55-8.29-.57-11.48.35-1.6.46-2.91,1.72-4.35,2.52-1.43.8-2.71,1.79-4.11,2.63-2.47,1.48-5.44,2.14-8.19,2.88-5.46,1.49-10.77,3.32-16.24,4.75-5.98,1.57-11.69,4.12-17.72,5.51-11.99,2.76-24.52,4.38-35.55,10.05-5.25,2.7-10.89,4.57-16.21,7.15-4.93,2.39-9.57,5.32-14.42,7.85-7.17,3.74-14.48,6.75-21.2,11.22-2.68,1.78-4.27,4.31-6.14,6.84-1.71,2.31-3.29,4.84-4.74,7.32-1.56,2.66-3.38,5.19-5.99,6.87-1.85,1.19-4.14,2.67-6.29,3.15.07-.7.5-1.22.92-1.76,1.18-1.51,2.59-2.87,3.76-4.41,1.82-2.38,3.35-4.58,3.46-7.59.11-2.85,1.19-5.57,2.8-7.94,3.9-5.71,8.27-10.64,13.49-15.19,2.97-2.59,5.6-4.93,9.2-6.57,3.51-1.6,7.17-2.9,10.71-4.42,7.15-3.07,14.44-5.79,21.73-8.51,7.89-2.95,16.19-4.61,24.3-6.84,3.82-1.05,7.75-1.6,11.55-2.69,4.9-1.41,9.82-2.77,14.73-4.16,7.9-2.23,15.57-6.26,22.66-10.34,3.18-1.83,6.3-3.75,9.53-5.5,4.09-2.22,8.4-3.96,12.43-6.29,6.98-4.04,14.27-7.54,21.72-10.62,7.23-2.99,15.39-3.88,23.03-5.41,7.74-1.55,15.47-3.12,23.26-4.43,9-1.51,17.74-3.58,26.86-4.46,7.28-.7,14.51-1.79,21.81-2.13,4.25-.2,8.23-.91,12.45,0,3.17.68,5.94,2.04,8.79,3.51,9.93,5.11,21.47,9.47,32.76,9.53,3.29.02,6.54.61,9.84.7,2.54.07,4.97.29,7.47.85,3.05.68,4.72,1.79,3.48,1.88Z"/>
          <path class="cls-4" d="m2384.41,191.34c1.17,1.51,3.18,3.5,3.47,5.6.37,2.62-2.68,4.85-4.73,5.9-4.28,2.19-9.96,2.4-14.58,3.65-6.08,1.65-12.08,3.65-18.1,5.49-5.63,1.72-11.13,3.34-16.97,4.25-2.43.38-6.13,1.29-8.16-.6-4.19-3.92.91-7.56,4.07-9.95,5.79-4.37,13.37-5.99,20.29-7.69,4.95-1.22,9.72-2.29,14.77-3.06,3.66-.56,6.98-1.49,10.54-2.38,1.44-.36,2.8-.27,4.21-.57.9-.19,3.36-1.66,5.18-.63Z"/>
          <path class="cls-4" d="m2265,431.53c2.44-3.11,5.07-4.61,8.45-6.81,6.47-4.21,14.05-6.68,20.73-10.51,6.37-3.65,13.82-6.78,21.01-8.32,5.8-1.24,11.62-1.51,17.47-2.18,3.45-.39,6.92-.08,10.38-.49,3.77-.44,7.51-.34,11.3-.36,3.69-.01,7.29.22,10.96.53,4.42.37,8.85.22,13.23.99,2.22.39,7.8,1.08,7.95,3.94.15,2.73-2.78,4.1-4.81,5.19-4.92,2.65-10.28,4.37-15.75,5.48-7.68,1.57-15.37,3.32-23.02,5.03-6.49,1.45-12.99,3.03-19.41,4.76-2.97.8-5.57,1.95-8.44,3.03-2.94,1.11-5.93,1.77-8.79,3.13-4.91,2.33-10.2,3.3-15.29,5.12-2.3.82-4.6,1.59-6.91,2.37-2.53.85-4.54,2.4-6.96,3.47-4.17,1.85-8.52,4.22-12.98,5.26-3.89.92-7.7,1.78-11.57,2.72-3.11.76-9.08,3.25-11.84.57-3.27-3.17.97-9.66,3.18-12.29,3.23-3.84,7.89-6.21,12.26-8.53,2.62-1.39,5.17-2.84,8.84-2.1Z"/>
        </g>
        <g>
          <path class="cls-3" d="m2059.86,126.74c-3,.2-5.85.9-8.56,2.1.05.77-.11,1.94-.29,2.68-.13.54-.81,1.35-.6,1.91.62,1.66,3.64,1.67,4.93,1.45,2.16-.36,3.7-1.62,5.48-2.7,1.33-.81,1.71-1.14,2.35-2.53-.54-.45-1.13-.81-1.26-1.54l-2.05-1.36Z"/>
          <path class="cls-3" d="m2143.31,255.25c.63,1.47.9,2.97.81,4.53-2.73,2.25-4.89,3.94-8.74,4.47-4.54.63-10.42.16-13.83-3.3-1.35-1.37-3.77-4.55-3.84-6.61-.07-1.97,2.29-4.35,3.75-5.5,2.85-2.24,8.27-2.41,11.75-1.7,1.6.33,3.66.9,5.12,1.7,2.36,1.29,3.28,3.55,4.99,5.5v.91Z"/>
          <path class="cls-3" d="m2100.55,278c-3.24.15-6.17,1.08-8.8,2.79.91,1.38.87,3.4,2.61,4.3,1.12.58,4.59.54,5.66.11.62-.25,2.73-2.15,3.07-2.84.84-1.7-.5-4.01-2.54-3.46v-.91Z"/>
          <path class="cls-3" d="m2521.73,375.01c-3.24.15-6.17,1.08-8.8,2.79.91,1.38.87,3.4,2.61,4.3,1.12.58,4.59.54,5.66.11.62-.25,2.73-2.15,3.07-2.84.84-1.7-.5-4.01-2.55-3.46v-.91Z"/>
          <path class="cls-3" d="m2037.77,141.52c-2.61,2.85-4.91,6.09-8.9,7.14-4.31,1.14-6.39-1.49-8.27-5.09-2.07-3.94-1.48-10.72-.89-15.01.57-4.12,2.58-10.55,6.2-13.06,6.9-4.79,12.48,2.22,13.58,8.69.3,1.8.78,3.65.98,5.45.26,2.41-.63,4.44-1.21,6.75-.57,2.26-.75,4.72-1.87,6.8-1.02,1.89-2.66,3.18-4.16,4.69l4.55-6.37Z"/>
          <path class="cls-3" d="m2490.86,378.08c-5.45,2.03-8.33,3.3-13.91,2.58-4.09-.53-8.28-1.7-12.31-2.59-4.18-.92-13.64-1.63-14.64-7.17-1.22-6.75,8.16-11.62,12.48-14.73,4.29-3.09,9.44-5.94,14.67-6.8,4.79-.79,8.26-1.95,12.63.68,3.36,2.03,7.22,4.34,8.63,8.18,1.58,4.28.36,8.1-2.29,11.64-2.44,3.25-5.16,5.33-5.25,8.2Z"/>
          <path class="cls-3" d="m2447.68,378.8c-.19-2.76.3-3.75-1.98-4.58-.79-.29-2.81-.17-3.52.17-1.74.81-2.7,3.18-2.71,4.87,0,1.73.55,3.63,2.77,3.25,1.23-.21,4.65-2.49,4.52-3.7h.91Z"/>
          <path class="cls-3" d="m2121.8,244.05c-.19-2.76.3-3.75-1.98-4.58-.79-.29-2.81-.17-3.52.17-1.74.81-2.7,3.18-2.71,4.87,0,1.73.55,3.63,2.77,3.25,1.23-.21,4.65-2.49,4.52-3.7h.91Z"/>
          <path class="cls-3" d="m2379.86,463.6c-3.36,1.13-7.03,2.96-10.58,2.79-1.94-.09-4.13-.55-6.04-.9-3.47-.64-7.48-2.01-9.87-4.84-3.56-4.22-.99-7.07,3.72-7.86,5.01-.84,10.58-2.09,15.49-.14,2.54,1.01,10.03,4.49,5.45,8.22l1.82,2.73Z"/>
          <path class="cls-3" d="m2458.11,63.28c1.01,3.25,1.75,5.62-1.21,8-3.82,3.06-10.71,2.3-15.28,2.91-3.78.5-13.8,2.83-10.31-4.54,2.58-5.46,6.68-7.73,12.24-9.1,4.59-1.14,10.84-2.12,14.56,1.82v.91Z"/>
          <path class="cls-3" d="m2037.77,7.78c-2.08-.16-10.42-1.56-14.11-.79-1.74.36-3.51,1.16-5.22,1.66-3.78,1.11-7.59,2.98-10.32,5.96-.89.97-2.09,3.16-2.15,4.54-.09,1.93,1.92,3.79,3.56,4.82,2.43,1.52,5.42,1.09,8.14,1.11,4.64.04,9.16-.52,13.37-2.7,2.48-1.29,11.26-8.32,6.74-11.87v-2.73Z"/>
          <path class="cls-3" d="m2124.2,169.73c2.12,4.43,2.3,4.75-.1,8.81-2.63,4.43-6.9,6.77-11.59,8.59-3.34,1.3-10.53,1.47-10.04-4.08.38-4.38,6.77-9.72,9.93-12.47,3.77-3.29,7.91-3.58,12.71-3.57l-.91,2.73Z"/>
          <path class="cls-2" d="m2448.56,100.58c-3.89,4.82-6.07,7.17-12.28,7.98-3.48.46-7.91-1.25-10.33-3.86-4.01-4.32-.05-8.14,4.15-10.3,3.6-1.85,7.51-3.06,11.14-.83,1.27.78,2.81,1.93,3.13,3.72.43,2.48-1.93,3.8-1.26,6.01l5.46-2.73Z"/>
          <path class="cls-2" d="m2489.5,297.1c1.57-2.06,2.45-4.34,2.65-6.83-2.17-1.14-3.22-3.75-5.32-5.25-2.88-2.05-6.26-1.93-9.68-1.63-3.46.3-8.65,2.59-8.26,6.85.37,3.98,4.78,7.38,8.02,8.55,3.11,1.12,6.22,1.03,9.86,1.03l2.73-2.73Z"/>
          <path class="cls-2" d="m2336.65,395.37c-2.66-1.9-7.84-6.62-11.32-3.13-1.96,1.96-.94,4.23.07,6.19.94,1.82,2.01,3.28,4.35,3.83,2.96.69,4.05-1.53,6.63-1.7.09-.37.18-.73.26-1.1v-4.09Z"/>
          <path class="cls-2" d="m2541.92,215.48c-3.93,5.07-9.17,10.22-12.46,2.08-1.29-3.19-.84-3.31,1.55-5.49,2.18-2,3.35-2.74,6.59-1.82.08.38.16.75.23,1.13l4.09,4.09Z"/>
        </g>
        <g class="cls-7">
          <path class="cls-5" d="m2179.02,131.97c.53.42,3.86,2.5,4.19,3.87.2.81-.03,2.15-.04,3.02-.05,3.88-2.04,7.37-5.11,9.69-2.91,2.2-5.85,3.31-9.16,4.59-1.82.71-3.6,1.14-5.42.07-6.49-3.83,1.48-11.96,4.59-15.1,1.8-1.81,4.29-6.79,7.53-6.15h3.41Z"/>
          <path class="cls-5" d="m2232.93,107.4c6.45-4.89,14.04-7.79,21.2-11.5,7.05-3.65,13.72-7.66,21.28-10.25,7.64-2.62,15.29-4.88,23.31-5.96,11.95-1.61,24.38-1.43,36.34.12,4.9.64,9.71,1.81,14.63,2.34,2.32.25,4.42,1.08,6.69,1.48.67,1.74-1.92,2.89-3.09,3.6-2.37,1.45-5.8,1.96-8.42,2.92-3.05,1.12-6.14,2.04-9.22,3.07-7.16,2.38-14.24,4.89-21.63,6.54-8.7,1.94-17.69,2.98-26.47,4.55-8.21,1.47-16.11,4.23-24.29,5.84-5.59,1.1-10.87,2.8-16.61,2.73-2.26-.03-4.99.46-7.1-.5-1.03-.47-2.9-2.26-6.61-4.98Z"/>
          <path class="cls-5" d="m2357.12,75.33c2.74.71,6.45,1.29,9.06,2.72,1.7.93,3.31,1.52,5.23,1.92,4.68.97,8.97.93,13.67.15,1.36-.23,20.71-2.19,14.36-7.49-3.64-3.04-9.58-4.13-14.16-4.17-5.44-.04-10.56-.02-15.89.99-2.48.47-4.6.81-6.83,1.96-.68.35-1.24.38-1.42,1.17-.14.65-.03,1.36-4.03,2.75Z"/>
          <path class="cls-5" d="m2370.77,86.25c1.33.79,2.69,1.53,4.08,2.22-1.01,0-1.21-.68-1.98-1.04-1.02-.48-2.54-.9-3.65-1.04-1.3-.17-4.75.56-4.66,2.59.18,3.8,8.13,1.59,9.62.69l-3.41-3.41Z"/>
          <path class="cls-5" d="m2481.99,63.73c3.48-.68,6.92-1.21,10.35-2.04,4.71-1.15,9.68-.8,14.47-.56,5.78.29,11.36.76,16.84,2.76,1.62.59,4.02,1.23,4.71,3.09,1.71,4.61-5.16,6.8-8.27,7.69-7.31,2.11-14.51,2.87-22.07,3.34-3.37.21-6.73-.17-10.09.21-3.47.39-6.77.83-10.27.39-2.61-.33-5.05-.93-7.48-1.89-1.72-.68-3.39-.89-3.9-2.77-1.16-4.29,2.92-7.29,6.31-8.88,4.17-1.94,8.92-4.15,9.4-1.33Z"/>
          <path class="cls-5" d="m2161.28,23.47c6.26-5.89,14.13-7.76,22.45-9.25,2.36-.42,16.14-2.92,14.38,2.79-1.03,3.32-6.05,5.25-8.77,6.63-4.35,2.2-8.72,4.09-13.21,5.97-8.87,3.72-17.66,7.53-26.38,11.6-3.41,1.59-6.66,3.65-10.26,4.79-1.55.49-3.04,1.14-4.2-.31-2.24-2.83,1.19-6.38,2.93-8.57,3.15-3.95,7.68-7.28,12.26-9.38,3-1.38,6.04-2.46,8.78-4.3,1.94-1.3,3.79-1.75,2.02.03Z"/>
          <path class="cls-5" d="m2121.7,50.77c-.18-.04-.37-.09-.55-.13-.05-2.35-4.84-3.87-6.69-3.99-1.81-.12-3.96-.2-5.75.05-2.3.33-3.81,2.18-5.04,4.04-2.22,3.36-3.21,9.17,2.46,8.08,5.17-.99,10.51-2.92,13.52-7.37l2.05-.68Z"/>
          <path class="cls-5" d="m2093.72,66.46c-3.13,3.82-7.16,7.07-11.79,8.95-2.7,1.1-7.76,1.48-10.06-.56-4.04-3.59-1.85-10.62,1.09-14.2,4.6-5.59,13.84-6.88,20.36-4.75,1.59.52,3.72,1.11,4.45,2.77.74,1.67-.2,4.49-1.33,5.74l-2.73,2.05Z"/>
          <path class="cls-5" d="m2057.56,77.38c.65-.69,5.45-5.31,2.1-6.19-2.42-.63-4.3,1.79-5.86,3.06-1.01.83-3.3,1.83-1.9,3.33.97,1.03,3.64.48,4.97.48l.68-.68Z"/>
          <path class="cls-5" d="m2291.95,267.42c.61,1.24.69,1.09.46,2.02-.21.83-.64,1.71-1.09,2.41-1.37,2.13-3.64,3.37-5.89,4.42-2.2,1.02-4.54,1.86-6.8,2.75-2.32.91-4.42,2.31-6.65,3.39-2.92,1.4-6.18,2.49-9.29,3.37-3.31.93-6.36,1.86-9.86,1.39-1.17-.16-3.41-.64-3.85-1.97-.53-1.62,1-3.6,2.24-4.41.82-.53,1.78-.83,2.67-1.23,1.22-.55,2.38-1.22,3.62-1.72,2.55-1.02,4.99-2.2,7.65-2.92,4.09-1.1,8.67-1.51,12.44-3.55,2.3-1.24,4.02-2.97,6.55-3.69,2.27-.64,5.7-1.37,7.79-.26Z"/>
          <path class="cls-5" d="m2257.83,291.64c.39-.84.79-1.12.24-1.63-.52-.48-1.59-.38-2.24-.42-1.23-.07-2.67-.43-3.9-.3-.78.08-1.59.39-2.33.64-1.07.37-2.44.84-3.4,1.45-.67.43-.85,1.1-.5,1.81.83,1.68,4.42,1.3,5.82.99,1.26-.29,2.69-.54,3.89-1.03.73-.3,2.24-.57,2.76-1.16l-.34-.34Z"/>
          <path class="cls-5" d="m2223.03,287.89c.16.65.55,1.44.27,2.09-.26.59-1.16,1.26-1.59,1.72-1.95,2.13-3.94,3.73-6.49,5.07-1.03.54-2.01,1.23-3.1,1.65-1.06.41-2.21.59-3.29.94-1.1.35-2.16.85-3.28,1.17-1.46.43-2.88.69-4.27,1.33-5.26,2.4-10.76,4.73-16.47,5.86-2.13.42-5.2,1.09-7.31.34-1.26-.45-2.51-.93-2.09-2.43.55-1.95,2.17-3.14,3.73-4.27,2.15-1.55,4.68-2.44,7.07-3.57,3.1-1.47,6.25-2.81,9.43-4.09,2.97-1.2,5.97-2.23,8.94-3.39,4.63-1.82,9.12-3.37,14.03-4.22,2.55-.44,4.58-.41,4.4,1.81Z"/>
          <path class="cls-5" d="m2203.24,273.22c-2.44-1.4-5.09-2.19-7.47-.07-.9.81-1.63,1.68-.39,2.46,2.16,1.37,7.28,1.11,8.54-1.36l-.68-1.02Z"/>
          <path class="cls-5" d="m2124.43,187.92c1.44,0,5.67-.51,7.14,1.08.91.99.79,2.42-.07,3.34-1.95,2.07-5.19,2.76-7.73,3.75-3.87,1.52-7.93,2.55-11.71,4.26-4.19,1.89-8.45,3.54-12.55,5.65-3.52,1.81-6.99,3.65-10.31,5.81-1.51.98-3.1,1.82-4.7,2.65-1.48.77-2.95,1.62-4.59,2-2.3.53-5.55.92-7.58-.63-3.65-2.78,1.36-9.36,3.52-11.46,2.61-2.53,5.69-5.05,8.99-6.6,3.55-1.67,7.42-2.87,11.18-3.98,3.16-.93,6.21-1.99,9.31-3.07,2.56-.9,4.98-1.77,7.66-2.3,2.89-.57,5.76-1,8.68-1.37,2.67-.35,4.73.14,2.76.87Z"/>
          <path class="cls-5" d="m2095.09,185.54c-1.32.33-2.62.72-3.9,1.16-.13.35-.45.44-.8.77-.53.5-.68,1.07-.87,1.76-.26.98-.17,1.63.93,1.96,1.8.54,3.56-.57,5.03-1.55.78-.52,3.13-2.38,1.66-3.42l-2.05-.68Z"/>
        </g>
      </g>
    </g>
  </g>
</svg>