<?xml version="1.0" encoding="UTF-8"?>
<svg xmlns="http://www.w3.org/2000/svg" xmlns:xlink="http://www.w3.org/1999/xlink" viewBox="0 0 409.5 410.5">
  <defs>
    <style>
      .cls-1 {
        fill: #bdaed5;
      }

      .cls-1, .cls-2, .cls-3, .cls-4, .cls-5 {
        fill-rule: evenodd;
      }

      .cls-2 {
        fill: #b13d2f;
      }

      .cls-6 {
        isolation: isolate;
      }

      .cls-7 {
        mix-blend-mode: multiply;
        opacity: .58;
      }

      .cls-8 {
        fill: #ffe8ba;
      }

      .cls-3 {
        fill: url(#_Áåçûìÿííûé_ãðàäèåíò_312);
      }

      .cls-9 {
        fill: #f58b34;
      }

      .cls-4 {
        fill: url(#_Áåçûìÿííûé_ãðàäèåíò_312-3);
      }

      .cls-5 {
        fill: url(#_Áåçûìÿííûé_ãðàäèåíò_312-2);
      }
    </style>
    <radialGradient id="_Áåçûìÿííûé_ãðàäèåíò_312" data-name="Áåçûìÿííûé ãðàäèåíò 312" cx="159.01" cy="104.5" fx="159.01" fy="104.5" r="297.74" gradientUnits="userSpaceOnUse">
      <stop offset="0" stop-color="#f4832e"/>
      <stop offset=".84" stop-color="#bf3640"/>
      <stop offset=".93" stop-color="#a43066"/>
      <stop offset="1" stop-color="#b76fac"/>
    </radialGradient>
    <radialGradient id="_Áåçûìÿííûé_ãðàäèåíò_312-2" data-name="Áåçûìÿííûé ãðàäèåíò 312" cx="206.49" cy="86.32" fx="206.49" fy="86.32" r="372.22" xlink:href="#_Áåçûìÿííûé_ãðàäèåíò_312"/>
    <radialGradient id="_Áåçûìÿííûé_ãðàäèåíò_312-3" data-name="Áåçûìÿííûé ãðàäèåíò 312" cx="169.94" cy="87.82" fx="169.94" fy="87.82" r="372.22" xlink:href="#_Áåçûìÿííûé_ãðàäèåíò_312"/>
  </defs>
  <g class="cls-6">
    <g id="Layer_1" data-name="Layer 1">
      <g>
        <circle class="cls-9" cx="205.05" cy="205.14" r="199.39" transform="translate(-84.99 205.08) rotate(-45)"/>
        <circle class="cls-8" cx="205.05" cy="205.14" r="174.7"/>
        <path class="cls-2" d="m330.88,74.93c10.99,2.32,47.46,57.87,38.79,59.61-8.67,1.74-41.53-21.96-46.88-31.91-6.2-11.57-2.9-29.99,8.09-27.7Zm23.73,173.87c-64.23,48.9-146.38,45.44-145.62-14.14.79-59.62,73.3-110.92,91.8-119.2,20.34-9.1,118.04,84.47,53.81,133.34Zm-67.89-190.63c1.16,7.33-16.58,14.26-32.8,11.58-16.19-2.72-33.93-2.32-37.78-7.73-7.18-10.05,6.93-26.6,21.99-30.08,15.03-3.48,47.43,18.9,48.59,26.23Zm-72.5-35.88c1.92-4.43,23.33-7.7,24.49-5.19,1.13,2.5-2.54,6.75-10.23,8.28-7.73,1.56-16.06,1.04-14.26-3.08ZM59.5,83.05c12.92-23.45,50.93-62.28,105.91-67.19,38.64-3.45,53.81,28.86,36.43,60.47-17.35,31.58-105.88,37.99-123.84,39.12-17.93,1.16-24.25-21.96-18.51-32.4Zm105.03,242.31c-7.73,3.85-16.07,2.56-14.26-7.67,1.92-10.99,18.02-13.19,19.18-6.96,1.16,6.23,2.81,10.81-4.92,14.63Zm-116.02,8.43c-31.91-33.81-16.77-86,0-98.37,16.8-12.37,75.8,40.37,89.7,77.94,13.9,37.6-46.88,65.75-89.7,20.43Zm78.7,54c-19.33-8.34,4.06-48.59,32.98-54.39,28.92-5.77,102.22,22.75,102.89,36.83.7,14.08-84.96,39.55-135.87,17.56Zm194.48-42.6c-10.84-2.2,29.04-43.55,45.26-40.31,16.19,3.27-21.99,45.05-45.26,40.31ZM205.06,5.45c-18.97,0-37.35,2.56-54.79,7.42-.76.18-1.53.4-2.29.64-.95.28-1.89.55-2.84.83C61.92,39.72,1.17,116.62.01,207.84c1.44,112.02,92.69,202.36,205.05,202.36s203.61-90.34,205.05-202.36c-1.44-112.02-92.69-202.39-205.05-202.39Z"/>
        <path class="cls-3" d="m205.06.05C91.78.05-.02,91.88-.02,205.13c0,.92,0,1.83.03,2.72,1.44,112.02,92.69,202.36,205.05,202.36s203.61-90.34,205.05-202.36c.03-.89.03-1.8.03-2.72C410.14,91.88,318.3.05,205.06.05Zm164.61,129.09c-8.67,1.74-41.53-21.96-46.88-31.91-6.2-11.58-2.9-29.99,8.09-27.7,10.99,2.32,47.46,57.87,38.79,59.61ZM238.13,26.53c15.03-3.48,47.43,18.9,48.59,26.23,1.16,7.33-16.58,14.26-32.8,11.57-16.19-2.72-33.93-2.32-37.78-7.73-7.18-10.05,6.93-26.6,21.99-30.08Zm-23.91-9.65c1.92-4.43,23.33-7.7,24.49-5.19,1.13,2.5-2.54,6.75-10.23,8.28-7.73,1.56-16.06,1.04-14.26-3.08Zm-66.24-3.36c.76-.24,1.53-.46,2.29-.64,5.22-1.37,10.29-2.2,15.15-2.41,38.76-1.68,53.81,28.86,36.43,60.47-17.35,31.58-105.88,37.99-123.84,39.12-17.93,1.16-24.25-21.96-18.51-32.4,10.78-19.58,50.3-52.1,85.63-63.31.95-.31,1.89-.58,2.84-.83Zm16.55,306.44c-7.73,3.85-16.07,2.57-14.26-7.67,1.92-11,18.02-13.19,19.18-6.96,1.16,6.23,2.81,10.81-4.92,14.63Zm-116.02,8.43c-31.91-33.81-16.77-86,0-98.37,16.8-12.37,75.8,40.37,89.7,77.94,13.9,37.6-46.88,65.75-89.7,20.43Zm78.7,54c-19.33-8.34,4.06-48.59,32.98-54.39,28.92-5.77,102.22,22.75,102.89,36.83.7,14.08-84.96,39.55-135.87,17.56Zm194.48-42.6c-10.84-2.2,29.04-43.55,45.26-40.31,16.19,3.27-21.99,45.05-45.26,40.31Zm32.92-96.39c-64.23,48.89-146.38,45.44-145.62-14.14.79-59.62,73.3-110.92,91.8-119.2,20.34-9.1,118.04,84.47,53.81,133.34Z"/>
        <g class="cls-7">
          <path class="cls-1" d="m388.11,147.45c-1.59,1.08-4.62,2.59-4.12,4.99.24,1.12.9,2.08,1.25,3.16.31.95.5,1.94.59,2.93.12,1.35.83,3.44,1.8,4.48.73.79,1.5-.03,2-.77.54-.81,1.1-1.66,1.15-2.65.06-1.29.12-2.55.44-3.8.13-.48.5-.92.61-1.42.15-.67.1-1.4.08-2.08-.04-1.47-1.15-4.27-3.8-4.83Z"/>
          <path class="cls-1" d="m177.26,119.36c-.21-.67-.09-1.21.36-1.64,2.36.05,3.19,4.72.97,5.63-2.56,1.04-2.87-2.47-2.09-3.99h.76Z"/>
          <path class="cls-1" d="m133.69,149.29c1.24-.6,2.26-1.42,3.63-1.1,1.16.27,2.09.94,2.86,1.83.96,1.1,1.36,2.49,1.77,3.86.2.68.53,1.31.34,2.02-.74,2.79-3.91,4.75-6.44,5.55-1.47.46-2.81.99-4.34,1.12-1.04.08-2.1.24-3.13.42-.87.15-1.67.51-2.56.27-.64-.17-1.49-.73-2.01-1.13-1.68-1.29-2.73-3.15-2.65-5.23.14-3.63,4.47-6.52,7.42-8,2.43-1.21,6.26-2.71,5.13.39Z"/>
          <path class="cls-1" d="m145.06,144.37c-.35,1.04-.65,1.35.18,1.92.6.41,1.45.39,2.1.17,1.27-.42,2.86-2.34,1.91-3.64-.48-.66-1.6-1.83-2.39-1.91-1.55-.15-3.51,2.07-3.32,3.45h1.52Z"/>
          <path class="cls-1" d="m22.08,132.25c-.36.5-.5.92-.69,1.51-.43,1.34-.88,2.68-1.31,4.02-.81,2.53-2.01,4.92-2.84,7.44-.61,1.83-.89,3.75-1.2,5.65-.16.97-.29,2.01-.38,2.99.24,0,.43-.44.59-.61.54-.6.98-1.31,1.57-1.86,1.32-1.23,2.66-2.54,3.88-3.87.23-.25.38-.57.66-.77.35-.24.82-.44,1.19-.66.66-.39,1.31-.86,1.82-1.44,1.18-1.36,1.81-3.26,2.28-4.98.16-.59.19-1.19.36-1.77.19-.63.37-1.23.49-1.89.24-1.38,0-2.82-.28-4.18-.34-1.59-.46-4.22-2.06-5.16-.78-.46-1.39.37-1.75,1.01-.45.81-.73,1.69-1.14,2.51-.54,1.09-1.38,2.33-1.19,2.08Z"/>
          <path class="cls-1" d="m194.31,167.29c.4-.67.94-1.9,1.95-1.68.99.21,1.02,1.63.91,2.4-.27,1.84-2.62-.08-2.47-1.29l-.38.57Z"/>
          <path class="cls-1" d="m212.31,178.84c-.34.72-.64,1.37-.48,2.17.23,1.14,1.09,1.59,2.19,1.63,1.68.06,2.84-.36,3.18-2.1.21-1.07-.51-2.69-1.29-3.42-.37-.35-.86-.53-1.38-.57-1.04-.08-1.53.74-2.03,1.53l-.19.76Z"/>
          <path class="cls-1" d="m319.69,72.74c1.5.83,2.99,1.68,4.21,2.85,1.07,1.03,1.76,2.33,2.69,3.46,1.32,1.6,3.02,2.74,4.58,4.11,1.38,1.2,2.55,2.45,3.12,4.22.43,1.34.4,3.07-.44,4.41-.52.82-1.23,1.55-1.98,2.19-.36.31-.71.57-1.06.86-.23.19-.34.38-.63.56-.38.23-.47.11-.67-.2-.39-.59-.59-1.06-.59-1.81.01-1.13-.38-2.26-.79-3.27-.41-1-.73-2.01-1.2-2.98-.46-.95-.93-1.91-1.37-2.87-.38-.83-.73-1.67-1.11-2.51-.37-.82-.88-1.57-1.31-2.36-.36-.66-.85-1.23-1.19-1.9-.22-.42-.42-.82-.68-1.21-.21-.31-.37-.61-.52-.96-.14-.33-.39-.58-.56-.89-.11-.2-.38-.97-.5-1.7Z"/>
          <path class="cls-1" d="m362.61,284.88c-.28.15-.62.25-.77.55-.06.12-.11.38-.12.51-.06.77,1,1.12,1.53,1.27,1.45.42,3.27.39,4.67-.49.89-.57,1.89-1.72,2.01-2.89.16-1.61-1.06-2.89-2.21-3.56-1.08-.63-2.71-1.17-3.91-.38-.43.28-.84.66-1.03,1.18-.15.4-.12.83-.23,1.24-.15.55-.53.95-.45,1.55.06.42.27.75.54,1.03Z"/>
          <path class="cls-1" d="m371.29,287.48c.05-.48.09-.52.43-.81.3-.26.58-.33.9-.13.51.31.64,1.15.24,1.66-.26.32-.76.41-1.12.35-.43-.08-.7-.52-.7-1l.25-.06Z"/>
          <path class="cls-1" d="m392.69,254.99c-.68.14-.93.19-1.41.69-.24.25-.38.45-.35.83.08.93.78,2.03,1.43,2.53.48.37,1.2.52,1.79.35.52-.15,1.06-.66,1.51-.98.42-.31.82-.65,1.21-1,.68-.61,1.29-1.34,1.05-2.33-.21-.88-.94-1.74-1.77-1.91-.67-.14-1.13,0-1.78.17-.61.17-1.14.24-1.68,1.65Z"/>
          <path class="cls-1" d="m388.7,257.84c.43.16.81.41,1.14.74-.08.22.14.41-.02.65-.22.34-.73.07-.98-.01-.31-.11-.61-.36-.75-.69-.05-.12-.3-.64,0-.6l.62-.09Z"/>
          <path class="cls-1" d="m341.17,275.43c-.43.49-.92,1.02-.61,1.77.28.7,1.17.82,1.79.69.33-.07.71-.13.86-.5.15-.37.21-.81.33-1.19.28-.92,1.29-1.34.8-2.44-.2-.45-.77-.93-1.24-.96-.88-.05-1.57.81-2.09,1.52l.15,1.11Z"/>
          <path class="cls-1" d="m27.46,184.32c-1.66.39-3.07,1.17-4.24,2.32.02.21.03.42.05.63-.38,1.11-.47,2.24.09,3.31,1.69,3.23,5.06,2.84,8.12,2.83,3.28-.01,7.45.35,5.95-4.19-.69-2.07-1.64-5.46-3.56-6.76-1.02-.69-1.54-.37-2.52,0-1.25.46-2.89.92-3.88,1.86h0Z"/>
          <path class="cls-1" d="m150.18,273.56c.5-.89,1.24-2.6,2.53-2.75,1.04-.12,1.4.49,2.16,1.03,1.66,1.19,3.24,2.74,1.59,4.87-.72.94-2.49,1.56-3.72,1.35-1.09-.19-2.91-1.52-2.56-2.8v-1.71Z"/>
          <path class="cls-1" d="m269.75,118.67c-.82,1.68-.89,1.78-.42,3.48.36,1.28.6,2.72,1.56,3.72,1.27,1.32,3.01,1,4.61,1.34,1.25.27,1.97.35,3.06-.49,1.05-.81,2.09-2.1,2.75-3.27,2.15-3.8,2.05-9.36.32-13.26-1.14-2.56-2.84-5.49-5.73-6.3-2.44-.69-5.23-.13-6.95,1.74-1.74,1.89-2.19,4.64-1.66,7.09.17.58.33,1.16.48,1.74.09.75.11,1.5.05,2.26.07.8.52,1.53,1.93,1.96Z"/>
          <path class="cls-1" d="m163.35,142.39c1.61,1.28,1.37,1.06,1.61,2.68.11.71.39.87.24,1.55-.19.82-1.39,1.65-2.25,1.57-.69-.06-1.73-1.35-2.01-1.87-.42-.8-.26-1.23.11-2.01l2.3-1.92Z"/>
          <path class="cls-1" d="m302.99,51.72c-.34,1.4-.8,3.05.74,4,1.05.65,2.67,0,3.59-.72,1.32-1.01,2.73-3.56,2.95-5.21.23-1.78-1.9-3.67-3.54-3.87-3.32-.41-5.09,4.85-5.28,7.33l1.54-1.54Z"/>
          <path class="cls-1" d="m91.65,74.01c-.19-.39-.99-1.52-.85-2.02.06-.23.34-.27.44-.45.41-.67.87-1.27,1.65-1.4,1.63-.28,2.95.32,3.77,1.75.54.95.55,1.91-.24,2.69-.86.86-2.73,1.25-3.62.19l-1.15-.77Z"/>
          <path class="cls-1" d="m295.55,353.61c-1.6,1.99-2.2,4.53-2.48,7.12-.18,1.65-.57,3.78.71,4.9,3.02,2.63,8.12-5.07,9.56-7.59,1.18-2.07,2.16-4.7,2.46-7.11.18-1.48,0-4.58-1.01-5.66-1.31-1.38-3.42-.75-4.78.39-3.14,2.62-3.76,6.96-5.85,10.35l1.39-2.4Z"/>
          <path class="cls-1" d="m293.91,352.54c-.38-.03-2.02-.34-2.68-.09-.47.18-1.21.45-1.47.94-.36.68-.11,1.54.19,2.12.2.38.66.85,1.12.79.36-.05.76-.48,1.05-.72.51-.44.94-.99,1.37-1.56.2-.26.44-.5.6-.82.23-.49-.02-.76-.02-1.2l-.16.55Z"/>
          <path class="cls-1" d="m286.06,372.66c.34.32.67.64,1,.96-.23.5-.23,1.15-.77,1.36-.37.14-1.2-.08-1.51-.32-.45-.36-.65-.9-.46-1.49.22-.7.86-.82,1.46-.78l.27.28Z"/>
          <path class="cls-1" d="m170.56,302.11c-.22.67-.3,1.18.25,1.74.78.79,1.94.96,2.81.28,1.21-.94,2.54-3.04,2.19-4.67-.22-1.02-1.53-2.21-2.57-1.59-.51.31-1.24.73-1.64,1.16-.7.76-.98,1.88-1.05,2.88v.19Z"/>
          <path class="cls-1" d="m174.82,246.26c-.48.45-.72.6-.84,1.21-.13.7-.2,1.38.2,2.02.79,1.25,2.78,2.09,4.19,2.42,1.29.3,2.3.13,3.37-.64,1.2-.86,1.96-1.95,2.17-3.42.22-1.54-.09-2.66-1.41-3.6-1.06-.75-2.51-1.59-3.81-1.8-1.22-.19-2.05.14-2.97.92-.82.69-1.89,1.93-.91,2.9Z"/>
          <path class="cls-1" d="m185.58,251.06c.03-.4-.06-.87.39-.98.57-.14,1.58.39,1.95.77.3.32.63,1.07.56,1.52-.05.36-.41.67-.69.88-.49.36-1.07.42-1.55.12-.34-.21-1.18-.65-1.04-1.16l.38-1.15Z"/>
          <path class="cls-1" d="m152.74,200.18c-.02.73,0,1.1.38,1.72.55.92,1.4,1.71,2.29,2.29,1.16.75,2.63,1.33,4.04,1.21,1-.09,1.96-1.22,2.11-2.16.18-1.13-.25-2.77-.94-3.69-1.32-1.77-3.69-3.22-5.97-3.03-2.63.22-2.72,4.13-1.92,3.66Z"/>
          <path class="cls-1" d="m164.07,209.39c-.29-.27-.49-.58-.59-.95.38-.17.5-.6.92-.75.4-.15.91-.04,1.27.15.54.29.88.76.91,1.36.03.68-.22.82-.77,1.1-.4.21-.48.3-.92.06-.23-.12-.62-.41-.81-.59v-.38Z"/>
          <path class="cls-1" d="m216.9,136.08c-2.64-.25-6.11-.92-8.91-.5-2.16.33-4.31.79-6.4,1.41-3.29.99-6.43,2.52-9.65,3.72-6.4,2.38-14.26,4.06-17.07,11.21-1.38,3.5-.09,6.9.26,10.51.3,3.14.16,6.38.11,9.53-.06,3.37.56,6.19,2.97,8.71,2.41,2.54,5.98,3.52,9.24,4.48,2.43.72,5.08,1.28,7.62.95,4.44-.59,7.48-4.67,10.32-7.75,1.13-1.22,2.24-2.61,3.59-3.59,1.28-.93,2.54-1.13,3.99-1.62,2.84-.95,6-1.51,8.04-3.85,5.83-6.66,9.12-17.92,5.23-26.17-1.47-3.12-3.6-6.12-5.88-8.71-.8-.92-2.7-2.67-3.45,1.67Z"/>
          <path class="cls-1" d="m216.33,125.67c-.41-.93-.58-1.89-.5-2.89,1.14-.57,1.51-2.78,2.52-3.72.91-.85,2.09-1.21,3.31-.83,2.57.8,3.16,3.66,1.92,5.72-.14.23-.47.31-.61.54-.16.26-.23.83-.4,1.04-.63.75-.94.53-1.84.77-.83.22-.96.74-2.08.4-1.02-.31-1.45-1.3-2.31-1.62v.58Z"/>
          <path class="cls-1" d="m11.48,249.5c-2.57-3.57-3.75-7.54-3.52-11.96.1-1.83-.1-5.13,2.5-4.88,3.49.34,5.28,5.75,6.25,8.47,1.44,4.02,2.85,8.12,2.34,12.46-.7,5.95-8.52-5.89-9.3-6.98l1.74,2.89Z"/>
          <path class="cls-1" d="m19,229.83c-.62,3.44.92,8.36,4.66,9.45,1.32.39,1.83-.43,2.53-1.7.69-1.25,1.15-2.66.66-4.01-.33-.9-1.08-1.8-1.62-2.58-.37-.52-.71-.89-.96-1.45-.25-.55-.15-.98-.59-1.48-1.04-1.18-5.08-2.14-4.67.61v1.16Z"/>
          <path class="cls-1" d="m78.03,238.51c1.05-2.44,2.1-3.81,4.27-5.35,1.93-1.37,4.99-2.74,7.31-3.24,2.14-.47,5.45-.48,7.41.57,2.28,1.22,4.31,3.03,6.48,4.44,1.96,1.28,3.94,2,5.66,3.7,1.54,1.52,2.73,3.52,3.49,5.54,1.18,3.14,2.06,7.96.72,11.14-1.22,2.91-2.95,2.95-5.85,2.9-4.13-.07-8.03-3.4-10.6-6.38-1.3-1.5-2.28-3.03-3.88-4.29-1.85-1.46-3.79-2.81-5.74-4.14-1.81-1.23-3.83-2.09-5.51-3.51-.77-.66-3.18-2.49-3.74-1.38Z"/>
          <path class="cls-1" d="m120.27,258.18c-.31,1.81-.78,2.6.55,3.48.94.62,1.83.62,2.79.05,1-.59,3.21-2.72,2.93-3.97-.58-2.64-7.21-2.75-6.85.45h.58Z"/>
          <path class="cls-1" d="m237.16,79.38c-.42-.73-.6-1.5-.53-2.31,2.93-.66,4.23,3.24,5.33,5.25.64,1.16,1.85,2.87.29,3.89-.38.25-1.72.44-2.2.57-.54.14-1.18.28-1.74.17-2.48-.52-2.29-2.71-2.32-4.67l1.16-2.89Z"/>
          <path class="cls-1" d="m229.63,340.35c.29-6.29,5.89-13.09,11.3-15.95,7.71-4.08,17.75-1.38,24.65,3.15,5.79,3.81,9.83,10.72,9.8,17.75,0,1.88-.58,3.61-.63,5.47-.04,1.42.05,2.28-1.47,2.84-3.77,1.37-9.22.87-13.03.2-4.19-.73-8.85-1.49-12.71-3.31-3.46-1.63-6.65-3.82-10.09-5.53-1.75-.87-3.33-1.53-4.84-2.78-.76-.63-2.87-1.15-3-1.85Z"/>
          <path class="cls-1" d="m269.56,318.36c.39,1.38.3,2.04,1.45,2.65.9.47,1.96.33,2.86,0,1.11-.42,2.8-1.82,2.56-3.21-.43-2.48-6.35-3.66-6.29-.58l-.58,1.16Z"/>
          <path class="cls-1" d="m356.94,256.44c.21-.75.58-2.6,1.2-3.14.49-.42,1.19-.44,1.96-.36,1.43.14,2.23.67,3.09,1.78.5.64,1.14,1.25,1.31,1.99.94,4.27-6.58,2.42-7.56-.27h0Z"/>
        </g>
        <path class="cls-2" d="m235.92,183.06c13.22-14.06,46.06-28.71,57.88-25.25,11.82,3.46,8.19,32.92,1.82,46.46-6.37,13.54-60.93,14.82-62.75,7.79-1.82-7.03-1.77-23.87,3.06-29.01Z"/>
        <path class="cls-5" d="m238.92,186.2c12.62-12.74,43.96-26,55.24-22.87,11.28,3.13,7.81,29.81,1.74,42.08-6.08,12.26-58.16,13.42-59.89,7.06-1.74-6.37-1.69-21.62,2.92-26.27Z"/>
        <path class="cls-2" d="m306.59,217.76c8.29-11.55,17.94-12.7,25.17-9.74.8.33,3.67,3.13,3.95,3.85,2.23,5.88-13.72,20.96-24.01,22.57-11.57,1.81-9.27-10.88-5.11-16.69Z"/>
        <path class="cls-4" d="m309.39,220.76c8.29-11.55,17.94-12.7,25.17-9.74,7.23,2.96-11.3,21.62-22.86,23.43-11.57,1.81-6.47-7.88-2.31-13.69Z"/>
      </g>
    </g>
  </g>
</svg>